<?xml version="1.0" encoding="UTF-8" standalone="no"?>
<svg
   width="90"
   height="90"
   viewBox="0 0 90 90"
   fill="none"
   version="1.1"
   id="svg5"
   sodipodi:docname="account-icon.svg"
   inkscape:version="1.3 (0e150ed6c4, 2023-07-21)"
   xmlns:inkscape="http://www.inkscape.org/namespaces/inkscape"
   xmlns:sodipodi="http://sodipodi.sourceforge.net/DTD/sodipodi-0.dtd"
   xmlns="http://www.w3.org/2000/svg"
   xmlns:svg="http://www.w3.org/2000/svg">
  <sodipodi:namedview
     id="namedview5"
     pagecolor="#ffffff"
     bordercolor="#000000"
     borderopacity="0.25"
     inkscape:showpageshadow="2"
     inkscape:pageopacity="0.0"
     inkscape:pagecheckerboard="0"
     inkscape:deskcolor="#d1d1d1"
     inkscape:zoom="3.2786885"
     inkscape:cx="-13.2675"
     inkscape:cy="26.23"
     inkscape:window-width="1920"
     inkscape:window-height="1004"
     inkscape:window-x="0"
     inkscape:window-y="0"
     inkscape:window-maximized="1"
     inkscape:current-layer="g3" />
  <g
     filter="url(#filter0_d_5861_611)"
     id="g3"
     transform="translate(-44,-32)">
    <rect
       width="90"
       height="90"
       transform="translate(44,32)"
       fill="#ff7979"
       id="rect1"
       x="0"
       y="0" />
    <path
       d="m 87.4375,83.25 h -9.375 c -1.2432,0 -2.4355,0.4939 -3.3146,1.3729 -0.879,0.8791 -1.3729,2.0714 -1.3729,3.3146 v 3.125 H 76.5 v -3.125 c 0,-0.4144 0.1646,-0.8118 0.4576,-1.1049 0.2931,-0.293 0.6905,-0.4576 1.1049,-0.4576 h 9.375 c 0.4144,0 0.8118,0.1646 1.1049,0.4576 C 88.8354,87.1257 89,87.5231 89,87.9375 v 3.125 h 3.125 v -3.125 c 0,-1.2432 -0.4939,-2.4355 -1.3729,-3.3146 C 89.873,83.7439 88.6807,83.25 87.4375,83.25 Z M 82.75,81.6875 c 1.2361,0 2.4445,-0.3666 3.4723,-1.0533 1.0278,-0.6868 1.8289,-1.6629 2.3019,-2.8049 0.4731,-1.1421 0.5969,-2.3987 0.3557,-3.6111 -0.2411,-1.2124 -0.8364,-2.326 -1.7105,-3.2001 -0.8741,-0.8741 -1.9877,-1.4693 -3.2001,-1.7105 -1.2124,-0.2412 -2.469,-0.1174 -3.6111,0.3557 -1.142,0.473 -2.1181,1.2741 -2.8049,2.3019 -0.6867,1.0278 -1.0533,2.2362 -1.0533,3.4723 0,1.6576 0.6585,3.2473 1.8306,4.4194 1.1721,1.1721 2.7618,1.8306 4.4194,1.8306 z m 0,-9.375 c 0.6181,0 1.2223,0.1833 1.7362,0.5267 0.5139,0.3433 0.9144,0.8314 1.1509,1.4024 0.2365,0.571 0.2984,1.1994 0.1779,1.8056 -0.1206,0.6062 -0.4183,1.163 -0.8553,1.6 -0.437,0.4371 -0.9939,0.7347 -1.6,0.8553 -0.6062,0.1205 -1.2346,0.0587 -1.8056,-0.1779 -0.571,-0.2365 -1.0591,-0.637 -1.4024,-1.1509 -0.3434,-0.5139 -0.5267,-1.1181 -0.5267,-1.7362 0,-0.8288 0.3292,-1.6237 0.9153,-2.2097 0.586,-0.5861 1.3809,-0.9153 2.2097,-0.9153 z"
       fill="#ffffff"
       id="path1" />
    <path
       d="M 107.75,81.6875 V 95.75 H 70.25 V 64.5 H 89 V 61.375 H 70.25 c -0.8288,0 -1.6237,0.3292 -2.2097,0.9153 -0.5861,0.586 -0.9153,1.3809 -0.9153,2.2097 v 31.25 c 0,0.8288 0.3292,1.6237 0.9153,2.2097 0.586,0.5861 1.3809,0.9153 2.2097,0.9153 h 37.5 c 0.829,0 1.624,-0.3292 2.21,-0.9153 0.586,-0.586 0.915,-1.3809 0.915,-2.2097 V 81.6875 Z"
       fill="#ffffff"
       id="path2" />
    <path
       d="m 95.25,81.6875 h 9.375 v 3.125 H 95.25 Z m 3.125,6.25 h 6.25 v 3.125 h -6.25 z M 114,67.625 V 64.5 h -3.283 c -0.201,-0.9781 -0.59,-1.9081 -1.144,-2.7391 l 2.329,-2.3281 -2.21,-2.2094 -2.328,2.3282 c -0.831,-0.5539 -1.761,-0.9423 -2.739,-1.1438 V 55.125 H 101.5 v 3.2828 c -0.978,0.2015 -1.9081,0.5899 -2.7391,1.1438 l -2.3281,-2.3282 -2.2094,2.2094 2.3282,2.3281 c -0.5539,0.831 -0.9423,1.761 -1.1438,2.7391 H 92.125 v 3.125 h 3.2828 c 0.2015,0.9781 0.5899,1.9081 1.1438,2.7391 l -2.3282,2.3281 2.2094,2.2094 2.3281,-2.3282 c 0.831,0.5539 1.7611,0.9423 2.7391,1.1438 V 77 h 3.125 v -3.2828 c 0.978,-0.2015 1.908,-0.5899 2.739,-1.1438 l 2.328,2.3282 2.21,-2.2094 -2.329,-2.3281 c 0.554,-0.831 0.943,-1.761 1.144,-2.7391 z m -10.938,3.125 c -0.927,0 -1.833,-0.2749 -2.604,-0.79 -0.7706,-0.5151 -1.3714,-1.2471 -1.7262,-2.1037 -0.3548,-0.8565 -0.4476,-1.799 -0.2667,-2.7083 0.1808,-0.9093 0.6273,-1.7445 1.2828,-2.4001 0.6551,-0.6555 1.4911,-1.102 2.4001,-1.2828 0.909,-0.1809 1.852,-0.0881 2.708,0.2667 0.857,0.3548 1.589,0.9556 2.104,1.7265 0.515,0.7708 0.79,1.6771 0.79,2.6042 -0.001,1.2428 -0.495,2.4344 -1.374,3.3132 -0.879,0.8788 -2.071,1.3731 -3.314,1.3743 z"
       fill="#ffffff"
       id="path3" />
  </g>
  <defs
     id="defs5">
    <filter
       id="filter0_d_5861_611"
       x="0"
       y="0"
       width="178"
       height="178"
       filterUnits="userSpaceOnUse"
       color-interpolation-filters="sRGB">
      <feFlood
         flood-opacity="0"
         result="BackgroundImageFix"
         id="feFlood3" />
      <feColorMatrix
         in="SourceAlpha"
         type="matrix"
         values="0 0 0 0 0 0 0 0 0 0 0 0 0 0 0 0 0 0 127 0"
         result="hardAlpha"
         id="feColorMatrix3" />
      <feOffset
         dy="12"
         id="feOffset3" />
      <feGaussianBlur
         stdDeviation="22"
         id="feGaussianBlur3" />
      <feComposite
         in2="hardAlpha"
         operator="out"
         id="feComposite3" />
      <feColorMatrix
         type="matrix"
         values="0 0 0 0 0.337255 0 0 0 0 0.603922 0 0 0 0 1 0 0 0 0.16 0"
         id="feColorMatrix4" />
      <feBlend
         mode="normal"
         in2="BackgroundImageFix"
         result="effect1_dropShadow_5861_611"
         id="feBlend4" />
      <feBlend
         mode="normal"
         in="SourceGraphic"
         in2="effect1_dropShadow_5861_611"
         result="shape"
         id="feBlend5" />
    </filter>
  </defs>
</svg>
