<?xml version="1.0" encoding="UTF-8" standalone="no"?>
<svg
   width="90"
   height="90"
   viewBox="0 0 90 90"
   fill="none"
   version="1.1"
   id="svg3"
   sodipodi:docname="call-icon.svg"
   inkscape:version="1.3 (0e150ed6c4, 2023-07-21)"
   xmlns:inkscape="http://www.inkscape.org/namespaces/inkscape"
   xmlns:sodipodi="http://sodipodi.sourceforge.net/DTD/sodipodi-0.dtd"
   xmlns="http://www.w3.org/2000/svg"
   xmlns:svg="http://www.w3.org/2000/svg">
  <sodipodi:namedview
     id="namedview3"
     pagecolor="#ffffff"
     bordercolor="#000000"
     borderopacity="0.25"
     inkscape:showpageshadow="2"
     inkscape:pageopacity="0.0"
     inkscape:pagecheckerboard="0"
     inkscape:deskcolor="#d1d1d1"
     inkscape:zoom="3.2786885"
     inkscape:cx="-10.5225"
     inkscape:cy="11.285"
     inkscape:window-width="1920"
     inkscape:window-height="1004"
     inkscape:window-x="0"
     inkscape:window-y="0"
     inkscape:window-maximized="1"
     inkscape:current-layer="g1" />
  <g
     filter="url(#filter0_d_5861_584)"
     id="g1"
     transform="translate(-44,-32)">
    <rect
       width="90"
       height="90"
       transform="translate(44,32)"
       fill="#2b7097"
       id="rect1"
       x="0"
       y="0" />
    <path
       d="m 97.4424,55.7227 2.0125,0.5437 c 2.4611,0.666 4.7051,1.9656 6.5071,3.7693 1.802,1.8036 3.1,4.0482 3.764,6.5099 l 0.541,2.0104 -4.02,1.0854 -0.544,-2.0104 c -0.475,-1.7584 -1.402,-3.3617 -2.689,-4.6499 -1.288,-1.2882 -2.891,-2.2163 -4.6487,-2.6918 L 96.3549,59.7435 Z M 66.084,56.1664 h 17.875 l 3.098,13.9375 -3.8751,3.875 c 2.2774,3.5467 5.2924,6.561 8.8396,8.8375 l 3.875,-3.8729 13.9375,3.0979 v 17.875 h -2.083 C 99.7307,99.9289 91.8791,97.6161 85.1465,93.2581 80.1825,90.0454 75.955,85.8179 72.7424,80.8539 68.3845,74.1213 66.0717,66.2697 66.084,58.2497 Z m 4.223,4.1667 c 0.3504,6.4999 2.3968,12.7948 5.9354,18.2583 2.8924,4.4686 6.6981,8.2742 11.1666,11.1667 5.4635,3.5388 11.7584,5.5851 18.258,5.9354 V 85.3831 l -8.4434,-1.875 -4.5292,4.5312 -1.3812,-0.7854 C 86.0689,84.2734 81.7271,79.9316 78.7465,74.6872 l -0.7854,-1.3812 4.5313,-4.5292 -1.875,-8.4437 z m 25.2312,2.4271 2.0125,0.5437 c 1.2306,0.333 2.3523,0.9828 3.2533,1.8846 0.901,0.9018 1.55,2.0241 1.882,3.255 l 0.542,2.0104 -4.021,1.0854 -0.5438,-2.0104 C 98.5207,69.0014 98.2424,68.5204 97.856,68.134 97.4696,67.7476 96.9887,67.4693 96.4611,67.3268 l -2.0104,-0.5437 z"
       fill="#ffffff"
       id="path1" />
  </g>
  <defs
     id="defs3">
    <filter
       id="filter0_d_5861_584"
       x="0"
       y="0"
       width="178"
       height="178"
       filterUnits="userSpaceOnUse"
       color-interpolation-filters="sRGB">
      <feFlood
         flood-opacity="0"
         result="BackgroundImageFix"
         id="feFlood1" />
      <feColorMatrix
         in="SourceAlpha"
         type="matrix"
         values="0 0 0 0 0 0 0 0 0 0 0 0 0 0 0 0 0 0 127 0"
         result="hardAlpha"
         id="feColorMatrix1" />
      <feOffset
         dy="12"
         id="feOffset1" />
      <feGaussianBlur
         stdDeviation="22"
         id="feGaussianBlur1" />
      <feComposite
         in2="hardAlpha"
         operator="out"
         id="feComposite1" />
      <feColorMatrix
         type="matrix"
         values="0 0 0 0 0.337255 0 0 0 0 0.603922 0 0 0 0 1 0 0 0 0.16 0"
         id="feColorMatrix2" />
      <feBlend
         mode="normal"
         in2="BackgroundImageFix"
         result="effect1_dropShadow_5861_584"
         id="feBlend2" />
      <feBlend
         mode="normal"
         in="SourceGraphic"
         in2="effect1_dropShadow_5861_584"
         result="shape"
         id="feBlend3" />
    </filter>
  </defs>
</svg>
