<?xml version="1.0" encoding="UTF-8" standalone="no"?>
<svg
   width="90"
   height="90"
   viewBox="0 0 90 90"
   fill="none"
   version="1.1"
   id="svg5"
   sodipodi:docname="matching-icon.svg"
   inkscape:version="1.3 (0e150ed6c4, 2023-07-21)"
   xmlns:inkscape="http://www.inkscape.org/namespaces/inkscape"
   xmlns:sodipodi="http://sodipodi.sourceforge.net/DTD/sodipodi-0.dtd"
   xmlns="http://www.w3.org/2000/svg"
   xmlns:svg="http://www.w3.org/2000/svg">
  <sodipodi:namedview
     id="namedview5"
     pagecolor="#ffffff"
     bordercolor="#000000"
     borderopacity="0.25"
     inkscape:showpageshadow="2"
     inkscape:pageopacity="0.0"
     inkscape:pagecheckerboard="0"
     inkscape:deskcolor="#d1d1d1"
     inkscape:zoom="3.2786885"
     inkscape:cx="-20.2825"
     inkscape:cy="36.6"
     inkscape:window-width="1920"
     inkscape:window-height="1004"
     inkscape:window-x="0"
     inkscape:window-y="0"
     inkscape:window-maximized="1"
     inkscape:current-layer="g3" />
  <g
     filter="url(#filter0_d_5861_600)"
     id="g3"
     transform="translate(-44,-32)">
    <rect
       width="90"
       height="90"
       transform="translate(44,32)"
       fill="#3da642"
       id="rect1"
       x="0"
       y="0" />
    <g
       clip-path="url(#clip0_5861_600)"
       id="g2">
      <path
         d="m 83.1667,100.176 c -0.636,-1.82 -1.825,-3.3981 -3.4021,-4.5148 -1.5771,-1.1167 -3.464,-1.7167 -5.399,-1.7167 -1.9349,0 -3.8218,0.6 -5.3989,1.7167 -1.5771,1.1167 -2.7662,2.6948 -3.4021,4.5148 m 46.8724,0 c -0.635,-1.82 -1.824,-3.3981 -3.402,-4.5148 -1.577,-1.1167 -3.464,-1.7167 -5.399,-1.7167 -1.934,0 -3.8214,0.6 -5.3985,1.7167 -1.5771,1.1167 -2.7661,2.6948 -3.4021,4.5148 M 65.5625,66.4521 h 7.2917 m -7.2917,0 4.1667,4.1507 m -4.1667,-4.1507 4.1667,-4.1507 m 42.7078,4.1507 h -7.291 m 7.291,0 -4.166,4.1507 m 4.166,-4.1507 -4.166,-4.1507 M 74.3625,92.3939 c 1.4504,0 2.8414,-0.574 3.867,-1.5956 1.0256,-1.0217 1.6017,-2.4074 1.6017,-3.8522 0,-1.4448 -0.5761,-2.8305 -1.6017,-3.8522 -1.0256,-1.0216 -2.4166,-1.5956 -3.867,-1.5956 -1.4504,0 -2.8414,0.574 -3.867,1.5956 -1.0256,1.0217 -1.6018,2.4074 -1.6018,3.8522 0,1.4448 0.5762,2.8305 1.6018,3.8522 1.0256,1.0216 2.4166,1.5956 3.867,1.5956 z m 29.2745,0 c 1.451,0 2.842,-0.574 3.867,-1.5956 1.026,-1.0217 1.602,-2.4074 1.602,-3.8522 0,-1.4448 -0.576,-2.8305 -1.602,-3.8522 -1.025,-1.0216 -2.416,-1.5956 -3.867,-1.5956 -1.45,0 -2.841,0.574 -3.8665,1.5956 -1.0256,1.0217 -1.6018,2.4074 -1.6018,3.8522 0,1.4448 0.5762,2.8305 1.6018,3.8522 1.0255,1.0216 2.4165,1.5956 3.8665,1.5956 z M 89,74.7535 c 2.7627,0 5.4122,-1.0933 7.3657,-3.0393 1.9535,-1.946 3.051,-4.5854 3.051,-7.3375 0,-2.7521 -1.0975,-5.3914 -3.051,-7.3374 C 94.4122,55.0933 91.7627,54 89,54 c -2.7627,0 -5.4122,1.0933 -7.3657,3.0393 -1.9535,1.946 -3.051,4.5853 -3.051,7.3374 0,2.7521 1.0975,5.3915 3.051,7.3375 1.9535,1.946 4.603,3.0393 7.3657,3.0393 z"
         stroke="#ffffff"
         stroke-width="3"
         stroke-linecap="round"
         stroke-linejoin="round"
         id="path1" />
      <path
         d="m 84.833,65.4144 2.2563,2.2476 c 0.1069,0.1064 0.2359,0.1883 0.3778,0.2401 0.142,0.0517 0.2936,0.0721 0.4442,0.0597 0.1507,-0.0125 0.2968,-0.0574 0.4283,-0.1318 0.1314,-0.0743 0.2451,-0.1763 0.333,-0.2988 l 4.4937,-6.2675"
         stroke="#ffffff"
         stroke-width="3"
         stroke-linecap="round"
         stroke-linejoin="round"
         id="path2" />
    </g>
  </g>
  <defs
     id="defs5">
    <filter
       id="filter0_d_5861_600"
       x="0"
       y="0"
       width="178"
       height="178"
       filterUnits="userSpaceOnUse"
       color-interpolation-filters="sRGB">
      <feFlood
         flood-opacity="0"
         result="BackgroundImageFix"
         id="feFlood3" />
      <feColorMatrix
         in="SourceAlpha"
         type="matrix"
         values="0 0 0 0 0 0 0 0 0 0 0 0 0 0 0 0 0 0 127 0"
         result="hardAlpha"
         id="feColorMatrix3" />
      <feOffset
         dy="12"
         id="feOffset3" />
      <feGaussianBlur
         stdDeviation="22"
         id="feGaussianBlur3" />
      <feComposite
         in2="hardAlpha"
         operator="out"
         id="feComposite3" />
      <feColorMatrix
         type="matrix"
         values="0 0 0 0 0.337255 0 0 0 0 0.603922 0 0 0 0 1 0 0 0 0.16 0"
         id="feColorMatrix4" />
      <feBlend
         mode="normal"
         in2="BackgroundImageFix"
         result="effect1_dropShadow_5861_600"
         id="feBlend4" />
      <feBlend
         mode="normal"
         in="SourceGraphic"
         in2="effect1_dropShadow_5861_600"
         result="shape"
         id="feBlend5" />
    </filter>
    <clipPath
       id="clip0_5861_600">
      <rect
         width="50"
         height="50"
         fill="#ffffff"
         transform="translate(64,52)"
         id="rect5"
         x="0"
         y="0" />
    </clipPath>
  </defs>
</svg>
