<?xml version="1.0" encoding="UTF-8" standalone="no"?>
<svg
   width="90"
   height="90"
   viewBox="0 0 90 90"
   fill="none"
   version="1.1"
   id="svg4"
   sodipodi:docname="privacy-icon.svg"
   inkscape:version="1.3 (0e150ed6c4, 2023-07-21)"
   xmlns:inkscape="http://www.inkscape.org/namespaces/inkscape"
   xmlns:sodipodi="http://sodipodi.sourceforge.net/DTD/sodipodi-0.dtd"
   xmlns="http://www.w3.org/2000/svg"
   xmlns:svg="http://www.w3.org/2000/svg">
  <sodipodi:namedview
     id="namedview4"
     pagecolor="#ffffff"
     bordercolor="#000000"
     borderopacity="0.25"
     inkscape:showpageshadow="2"
     inkscape:pageopacity="0.0"
     inkscape:pagecheckerboard="0"
     inkscape:deskcolor="#d1d1d1"
     inkscape:zoom="2.3183829"
     inkscape:cx="-56.289235"
     inkscape:cy="56.073568"
     inkscape:window-width="1920"
     inkscape:window-height="1004"
     inkscape:window-x="0"
     inkscape:window-y="0"
     inkscape:window-maximized="1"
     inkscape:current-layer="g2" />
  <g
     filter="url(#filter0_d_5861_607)"
     id="g2"
     transform="translate(-44,-32)">
    <rect
       width="90"
       height="90"
       transform="translate(44,32)"
       fill="#569aff"
       id="rect1"
       x="0"
       y="0" />
    <g
       clip-path="url(#clip0_5861_607)"
       id="g1">
      <path
         fill-rule="evenodd"
         clip-rule="evenodd"
         d="m 86.916,60.3327 c -0.8207,0 -1.6335,0.1616 -2.3918,0.4757 -0.7582,0.3141 -1.4472,0.7745 -2.0276,1.3549 -0.5804,0.5803 -1.0407,1.2693 -1.3548,2.0276 -0.3141,0.7583 -0.4758,1.571 -0.4758,2.3918 0,0.8207 0.1617,1.6335 0.4758,2.3918 0.3141,0.7582 0.7744,1.4472 1.3548,2.0276 0.5804,0.5804 1.2694,1.0407 2.0276,1.3548 0.7583,0.3141 1.5711,0.4758 2.3918,0.4758 1.6576,0 3.2473,-0.6585 4.4194,-1.8306 1.1721,-1.1721 1.8306,-2.7618 1.8306,-4.4194 0,-1.6576 -0.6585,-3.2473 -1.8306,-4.4194 -1.1721,-1.1721 -2.7618,-1.8306 -4.4194,-1.8306 z m -10.4167,6.25 c 0,-2.7627 1.0975,-5.4122 3.051,-7.3657 1.9535,-1.9535 4.603,-3.051 7.3657,-3.051 2.7627,0 5.4122,1.0975 7.3657,3.051 1.9535,1.9535 3.051,4.603 3.051,7.3657 0,2.7627 -1.0975,5.4122 -3.051,7.3657 -1.9535,1.9535 -4.603,3.051 -7.3657,3.051 -2.7627,0 -5.4122,-1.0975 -7.3657,-3.051 -1.9535,-1.9535 -3.051,-4.603 -3.051,-7.3657 z m -3.3062,22.0854 c -0.6729,0.8542 -0.8604,1.5 -0.8604,1.8729 0,0.2542 0.0771,0.5229 0.5312,0.8875 0.5188,0.4167 1.4209,0.8479 2.8,1.2125 2.7459,0.7292 6.6917,1.025 11.2521,1.025 0.4625,0 0.9188,-0.0041 1.3708,-0.0104 0.5526,-0.0075 1.0855,0.2049 1.4814,0.5903 0.396,0.3854 0.6227,0.9124 0.6301,1.4649 0.0075,0.5525 -0.2049,1.0854 -0.5903,1.4814 -0.3854,0.396 -0.9124,0.6226 -1.4649,0.6301 -0.4708,0.0062 -0.9479,0.0104 -1.4271,0.0104 -4.6437,0 -9.0312,-0.2917 -12.3187,-1.1625 -1.6355,-0.4333 -3.175,-1.0542 -4.3417,-1.9917 -1.2354,-0.9916 -2.0896,-2.3771 -2.0896,-4.1375 0,-1.6396 0.7458,-3.1729 1.7583,-4.4562 1.0292,-1.3021 2.4521,-2.5 4.1209,-3.5209 3.3396,-2.0354 7.8812,-3.4812 12.8708,-3.4812 0.9313,0 1.8479,0.05 2.7417,0.1458 0.5495,0.0583 1.0533,0.3325 1.4006,0.7623 0.3474,0.4297 0.5098,0.9799 0.4515,1.5294 -0.0583,0.5495 -0.3325,1.0533 -0.7623,1.4006 -0.4298,0.3474 -0.9799,0.5098 -1.5294,0.4515 -0.75,-0.0813 -1.5208,-0.1229 -2.3021,-0.1229 -4.2146,0 -8.0062,1.2291 -10.7,2.8729 -1.3479,0.8208 -2.3667,1.7125 -3.0229,2.5458 z m 28.9649,-7.3958 c -0.428,-0.1424 -0.89,-0.1424 -1.317,0 l -6.25,2.0833 c -0.415,0.1382 -0.776,0.4036 -1.0317,0.7584 -0.2558,0.3549 -0.3934,0.7813 -0.3933,1.2187 v 3.4812 c -3e-4,2.2284 0.8212,4.3786 2.3072,6.0392 1.486,1.6605 3.5322,2.7147 5.7468,2.9608 0.188,0.0209 0.373,0.0209 0.559,0 2.214,-0.2461 4.26,-1.3003 5.746,-2.9608 1.487,-1.6606 2.308,-3.8108 2.308,-6.0392 v -3.4812 c 0,-0.4374 -0.138,-0.8638 -0.394,-1.2187 -0.255,-0.3548 -0.616,-0.6202 -1.031,-0.7584 z m -4.8253,7.5416 v -1.9791 l 4.1663,-1.3896 4.167,1.3896 v 1.9791 c 0,2.4313 -1.781,4.4792 -4.167,4.8355 -1.158,-0.1728 -2.2159,-0.7558 -2.9807,-1.6429 -0.7647,-0.8871 -1.1854,-2.0193 -1.1856,-3.1905 z"
         fill="#ffffff"
         id="path1" />
    </g>
  </g>
  <defs
     id="defs4">
    <filter
       id="filter0_d_5861_607"
       x="0"
       y="0"
       width="178"
       height="178"
       filterUnits="userSpaceOnUse"
       color-interpolation-filters="sRGB">
      <feFlood
         flood-opacity="0"
         result="BackgroundImageFix"
         id="feFlood2" />
      <feColorMatrix
         in="SourceAlpha"
         type="matrix"
         values="0 0 0 0 0 0 0 0 0 0 0 0 0 0 0 0 0 0 127 0"
         result="hardAlpha"
         id="feColorMatrix2" />
      <feOffset
         dy="12"
         id="feOffset2" />
      <feGaussianBlur
         stdDeviation="22"
         id="feGaussianBlur2" />
      <feComposite
         in2="hardAlpha"
         operator="out"
         id="feComposite2" />
      <feColorMatrix
         type="matrix"
         values="0 0 0 0 0.337255 0 0 0 0 0.603922 0 0 0 0 1 0 0 0 0.16 0"
         id="feColorMatrix3" />
      <feBlend
         mode="normal"
         in2="BackgroundImageFix"
         result="effect1_dropShadow_5861_607"
         id="feBlend3" />
      <feBlend
         mode="normal"
         in="SourceGraphic"
         in2="effect1_dropShadow_5861_607"
         result="shape"
         id="feBlend4" />
    </filter>
    <clipPath
       id="clip0_5861_607">
      <rect
         width="50"
         height="50"
         fill="#ffffff"
         transform="translate(64,52)"
         id="rect4"
         x="0"
         y="0" />
    </clipPath>
  </defs>
</svg>
