<?xml version="1.0" encoding="UTF-8" standalone="no"?>
<svg
   width="90"
   height="90"
   viewBox="0 0 90 90"
   fill="none"
   version="1.1"
   id="svg3"
   sodipodi:docname="status-icon.svg"
   inkscape:version="1.3 (0e150ed6c4, 2023-07-21)"
   xmlns:inkscape="http://www.inkscape.org/namespaces/inkscape"
   xmlns:sodipodi="http://sodipodi.sourceforge.net/DTD/sodipodi-0.dtd"
   xmlns="http://www.w3.org/2000/svg"
   xmlns:svg="http://www.w3.org/2000/svg">
  <sodipodi:namedview
     id="namedview3"
     pagecolor="#ffffff"
     bordercolor="#000000"
     borderopacity="0.25"
     inkscape:showpageshadow="2"
     inkscape:pageopacity="0.0"
     inkscape:pagecheckerboard="0"
     inkscape:deskcolor="#d1d1d1"
     inkscape:zoom="3.2786885"
     inkscape:cx="-17.8425"
     inkscape:cy="32.025"
     inkscape:window-width="1920"
     inkscape:window-height="1004"
     inkscape:window-x="0"
     inkscape:window-y="0"
     inkscape:window-maximized="1"
     inkscape:current-layer="g1" />
  <g
     filter="url(#filter0_d_5861_617)"
     id="g1"
     transform="translate(-44,-32)">
    <rect
       width="90"
       height="90"
       transform="translate(44,32)"
       fill="#10e8b4"
       id="rect1"
       x="0"
       y="0" />
    <path
       d="m 102.258,63.7417 c 1.741,1.7411 3.122,3.8081 4.064,6.0829 0.943,2.2749 1.428,4.7131 1.428,7.1754 0,2.4623 -0.485,4.9005 -1.428,7.1754 -0.942,2.2748 -2.323,4.3418 -4.064,6.0829 m 0,0 -5.8938,-5.8937 m 5.8938,5.8937 5.492,5.4917 M 96.3663,69.6333 c 0.9675,0.9673 1.7351,2.1158 2.2587,3.3798 0.5237,1.264 0.7932,2.6187 0.7932,3.9869 0,1.3682 -0.2695,2.7229 -0.7932,3.9869 -0.5236,1.264 -1.2912,2.4125 -2.2587,3.3798 l -5.8938,-5.8938 m 0,0 c 0.199,-0.1922 0.3577,-0.4221 0.4669,-0.6762 0.1092,-0.2542 0.1666,-0.5276 0.169,-0.8042 0.0025,-0.2766 -0.0503,-0.551 -0.155,-0.807 -0.1048,-0.256 -0.2595,-0.4886 -0.4551,-0.6842 -0.1956,-0.1956 -0.4282,-0.3503 -0.6842,-0.4551 -0.2561,-0.1047 -0.5304,-0.1575 -0.807,-0.1551 -0.2766,0.0024 -0.55,0.0599 -0.8042,0.1691 -0.2542,0.1092 -0.484,0.2679 -0.6762,0.4669 m 2.9458,2.9458 -2.9458,-2.9458 m -5.8938,8.8396 C 80.036,82.774 79.0018,80.7041 78.6871,78.4708 m -2.9458,11.7875 c -2.4704,-2.4691 -4.202,-5.5791 -4.9997,-8.9796 -0.7977,-3.4004 -0.6297,-6.9561 0.4851,-10.2662 m 16.3,4.5146 L 70.2496,58.25"
       stroke="#000000"
       stroke-width="4"
       stroke-linecap="round"
       stroke-linejoin="round"
       id="path1" />
  </g>
  <defs
     id="defs3">
    <filter
       id="filter0_d_5861_617"
       x="0"
       y="0"
       width="178"
       height="178"
       filterUnits="userSpaceOnUse"
       color-interpolation-filters="sRGB">
      <feFlood
         flood-opacity="0"
         result="BackgroundImageFix"
         id="feFlood1" />
      <feColorMatrix
         in="SourceAlpha"
         type="matrix"
         values="0 0 0 0 0 0 0 0 0 0 0 0 0 0 0 0 0 0 127 0"
         result="hardAlpha"
         id="feColorMatrix1" />
      <feOffset
         dy="12"
         id="feOffset1" />
      <feGaussianBlur
         stdDeviation="22"
         id="feGaussianBlur1" />
      <feComposite
         in2="hardAlpha"
         operator="out"
         id="feComposite1" />
      <feColorMatrix
         type="matrix"
         values="0 0 0 0 0.337255 0 0 0 0 0.603922 0 0 0 0 1 0 0 0 0.16 0"
         id="feColorMatrix2" />
      <feBlend
         mode="normal"
         in2="BackgroundImageFix"
         result="effect1_dropShadow_5861_617"
         id="feBlend2" />
      <feBlend
         mode="normal"
         in="SourceGraphic"
         in2="effect1_dropShadow_5861_617"
         result="shape"
         id="feBlend3" />
    </filter>
  </defs>
</svg>
