<svg width="22" height="22" viewBox="0 0 22 22" fill="none" xmlns="http://www.w3.org/2000/svg">
<path d="M9.625 2.75C8.46886 2.74967 7.3313 3.04091 6.31756 3.59678C5.30382 4.15265 4.44664 4.9552 3.82529 5.93018C3.20395 6.90517 2.83852 8.0211 2.76281 9.17476C2.68709 10.3284 2.90354 11.4825 3.39212 12.5304L2.76375 15.6778C2.74167 15.7887 2.74729 15.9033 2.78011 16.0115C2.81292 16.1197 2.87192 16.2182 2.95188 16.2981C3.03184 16.3781 3.13029 16.4371 3.2385 16.4699C3.34671 16.5027 3.46135 16.5083 3.57225 16.4862L6.71825 15.8579C7.65094 16.292 8.66918 16.5113 9.6979 16.4995C10.7266 16.4878 11.7396 16.2453 12.6621 15.79C13.5847 15.3347 14.3933 14.6782 15.0283 13.8688C15.6634 13.0594 16.1087 12.1178 16.3314 11.1134C16.5541 10.109 16.5486 9.06746 16.3152 8.0655C16.0819 7.06353 15.6266 6.12671 14.983 5.3241C14.3394 4.52149 13.5239 3.87355 12.5966 3.42805C11.6693 2.98254 10.6538 2.75083 9.625 2.75ZM4.125 9.625C4.1253 8.42651 4.51707 7.26092 5.24071 6.30555C5.96434 5.35018 6.98024 4.65733 8.13384 4.33239C9.28744 4.00746 10.5156 4.06823 11.6315 4.50546C12.7474 4.94269 13.6899 5.73245 14.3157 6.75459C14.9415 7.77673 15.2163 8.9753 15.0983 10.168C14.9803 11.3606 14.4759 12.4821 13.6619 13.3618C12.848 14.2415 11.7689 14.8312 10.589 15.0413C9.40906 15.2513 8.1928 15.0702 7.12525 14.5255C6.98709 14.4549 6.82912 14.4331 6.677 14.4636L4.31337 14.9366L4.78637 12.5716C4.8166 12.4199 4.7948 12.2625 4.7245 12.1248C4.32902 11.3509 4.12352 10.494 4.125 9.625ZM12.375 19.25C10.8037 19.2526 9.27923 18.7147 8.0575 17.7265C9.07543 17.9226 10.1211 17.9258 11.1402 17.7361C12.4006 18.0254 13.7225 17.8623 14.8747 17.2755C15.0129 17.2049 15.1709 17.1831 15.323 17.2136L17.6866 17.6866L17.2136 15.3216C17.1834 15.1699 17.2052 15.0125 17.2755 14.8748C17.8617 13.7223 18.0248 12.4006 17.7361 11.1403C17.9252 10.122 17.9219 9.07731 17.7265 8.06025C18.7142 9.28119 19.2521 10.8046 19.25 12.375C19.2508 13.3792 19.0316 14.3714 18.6079 15.2818L19.2362 18.4278C19.2583 18.5387 19.2527 18.6533 19.2199 18.7615C19.1871 18.8697 19.1281 18.9682 19.0481 19.0481C18.9682 19.1281 18.8697 19.1871 18.7615 19.2199C18.6533 19.2527 18.5387 19.2583 18.4277 19.2362L15.2804 18.6079C14.3707 19.0323 13.3788 19.2515 12.375 19.25Z" fill="white"/>
</svg>
