<svg width="11" height="11" viewBox="0 0 11 11" fill="none" xmlns="http://www.w3.org/2000/svg">
<path d="M8.06568 2.3131H7.23795V1.7115C7.23795 1.60057 7.13981 1.4939 7.02461 1.49817C6.90941 1.50244 6.81128 1.59204 6.81128 1.7115V2.3131H3.82461V1.7115C3.82461 1.60057 3.72648 1.4939 3.61128 1.49817C3.49608 1.50244 3.39795 1.59204 3.39795 1.7115V2.3131H2.57448C2.29158 2.3131 2.02027 2.42548 1.82023 2.62552C1.62019 2.82556 1.50781 3.09687 1.50781 3.37977V8.0731C1.50781 8.356 1.62019 8.62731 1.82023 8.82735C2.02027 9.02739 2.29158 9.13977 2.57448 9.13977H8.06568C8.34858 9.13977 8.61989 9.02739 8.81993 8.82735C9.01996 8.62731 9.13234 8.356 9.13234 8.0731V3.37977C9.13234 3.09687 9.01996 2.82556 8.81993 2.62552C8.61989 2.42548 8.34858 2.3131 8.06568 2.3131ZM8.70568 8.0731C8.70568 8.42724 8.41981 8.7131 8.06568 8.7131H2.57448C2.22035 8.7131 1.93448 8.42724 1.93448 8.0731V4.48057H8.70568V8.0731ZM8.70568 4.0539H1.93448V3.37977C1.93448 3.02564 2.22035 2.73977 2.57448 2.73977H3.39795V2.9915C3.39795 3.10244 3.49608 3.2091 3.61128 3.20484C3.72648 3.20057 3.82461 3.11097 3.82461 2.9915V2.73977H6.81128V2.9915C6.81128 3.10244 6.90941 3.2091 7.02461 3.20484C7.13981 3.20057 7.23795 3.11097 7.23795 2.9915V2.73977H8.06568C8.41981 2.73977 8.70568 3.02564 8.70568 3.37977V4.0539Z" fill="#D5D5D5"/>
<path d="M5.10368 7.52684V6.05057C5.10368 6.04489 5.10216 6.03932 5.09929 6.03442C5.09642 6.02952 5.0923 6.02547 5.08735 6.02269C5.08239 6.01991 5.07679 6.0185 5.07112 6.0186C5.06544 6.0187 5.05989 6.02031 5.05504 6.02326L4.78283 6.19052C4.77313 6.19642 4.76203 6.19964 4.75068 6.19984C4.73932 6.20004 4.72812 6.19722 4.71822 6.19166C4.70831 6.1861 4.70007 6.178 4.69433 6.16821C4.68859 6.15841 4.68556 6.14726 4.68555 6.1359V5.85814C4.68555 5.81334 4.70901 5.77153 4.74784 5.74849L5.07381 5.5535C5.09365 5.54156 5.11636 5.53522 5.13952 5.53516H5.40661C5.42342 5.53516 5.44007 5.53847 5.4556 5.5449C5.47113 5.55133 5.48524 5.56076 5.49712 5.57265C5.50901 5.58453 5.51844 5.59864 5.52487 5.61417C5.5313 5.6297 5.53461 5.64635 5.53461 5.66316V7.52641C5.53461 7.56036 5.52113 7.59291 5.49712 7.61692C5.47312 7.64092 5.44056 7.65441 5.40661 7.65441H5.23211C5.21527 7.65458 5.19856 7.6514 5.18296 7.64506C5.16736 7.63872 5.15317 7.62934 5.14122 7.61748C5.12927 7.60561 5.1198 7.59148 5.11336 7.57592C5.10691 7.56036 5.10362 7.54368 5.10368 7.52684Z" fill="#D5D5D5"/>
</svg>
