<svg width="496" height="416" viewBox="0 0 496 416" fill="none" xmlns="http://www.w3.org/2000/svg">
<g opacity="0.3">
<path d="M47.4924 152.352C48.3167 152.352 48.9849 151.767 48.9849 151.045C48.9849 150.323 48.3167 149.737 47.4924 149.737C46.6682 149.737 46 150.323 46 151.045C46 151.767 46.6682 152.352 47.4924 152.352Z" fill="#006DCD"/>
<path d="M294.061 343.297C295.241 343.297 296.198 342.459 296.198 341.425C296.198 340.391 295.241 339.553 294.061 339.553C292.881 339.553 291.924 340.391 291.924 341.425C291.924 342.459 292.881 343.297 294.061 343.297Z" fill="#006DCD"/>
<path d="M345.449 267.127C346.273 267.127 346.941 266.541 346.941 265.819C346.941 265.097 346.273 264.512 345.449 264.512C344.624 264.512 343.956 265.097 343.956 265.819C343.956 266.541 344.624 267.127 345.449 267.127Z" fill="#006DCD"/>
<path d="M444.571 31.6766C444.571 31.9352 444.483 32.188 444.319 32.4031C444.155 32.6181 443.922 32.7857 443.649 32.8846C443.377 32.9836 443.077 33.0095 442.787 32.959C442.498 32.9086 442.232 32.7841 442.023 32.6012C441.814 32.4183 441.672 32.1854 441.615 31.9317C441.557 31.6781 441.587 31.4152 441.7 31.1763C441.813 30.9374 442.004 30.7332 442.249 30.5895C442.495 30.4458 442.783 30.3691 443.078 30.3691C443.474 30.3691 443.854 30.5069 444.134 30.7521C444.414 30.9973 444.571 31.3299 444.571 31.6766Z" fill="#006DCD"/>
<path d="M160.307 5.30751C160.307 5.56611 160.22 5.8189 160.056 6.03392C159.892 6.24894 159.659 6.41652 159.386 6.51548C159.113 6.61445 158.813 6.64034 158.524 6.58989C158.234 6.53944 157.968 6.41491 157.759 6.23205C157.551 6.04919 157.409 5.81622 157.351 5.56259C157.293 5.30896 157.323 5.04606 157.436 4.80714C157.549 4.56823 157.74 4.36402 157.986 4.22035C158.231 4.07668 158.52 4 158.815 4C159.21 4.00259 159.588 4.14118 159.867 4.38582C160.146 4.63047 160.304 4.96153 160.307 5.30751Z" fill="#006DCD"/>
<path d="M278.968 73.9119C279.792 73.9119 280.46 73.3265 280.46 72.6044C280.46 71.8823 279.792 71.2969 278.968 71.2969C278.144 71.2969 277.476 71.8823 277.476 72.6044C277.476 73.3265 278.144 73.9119 278.968 73.9119Z" fill="#006DCD"/>
</g>
<path d="M122.82 163.646C152.506 163.646 176.572 141.339 176.572 113.823C176.572 86.3064 152.506 64 122.82 64C93.133 64 69.0674 86.3064 69.0674 113.823C69.0674 141.339 93.133 163.646 122.82 163.646Z" fill="#006DCD"/>
<path opacity="0.7" d="M122.82 163.646C152.506 163.646 176.572 141.339 176.572 113.823C176.572 86.3064 152.506 64 122.82 64C93.133 64 69.0674 86.3064 69.0674 113.823C69.0674 141.339 93.133 163.646 122.82 163.646Z" fill="white"/>
<path opacity="0.2" d="M104.295 76.2366C96.9748 76.2158 89.7275 77.5856 83.0004 80.2615C74.7327 88.6841 69.8254 99.4766 69.0951 110.844C68.3648 122.211 71.8555 133.467 78.9864 142.739C86.1172 152.012 96.4583 158.742 108.289 161.809C120.12 164.877 132.728 164.098 144.014 159.601C151.012 152.453 155.62 143.575 157.279 134.046C158.938 124.518 157.577 114.747 153.36 105.922C149.144 97.0964 142.254 89.5955 133.527 84.3299C124.799 79.0643 114.61 76.2607 104.197 76.2593L104.295 76.2366Z" fill="#006DCD"/>
<path opacity="0.2" d="M98.9461 89.4015C98.9461 90.301 98.6583 91.1803 98.1192 91.9282C97.58 92.6761 96.8137 93.259 95.9171 93.6032C95.0206 93.9474 94.034 94.0375 93.0822 93.862C92.1304 93.6865 91.2561 93.2534 90.5699 92.6173C89.8837 91.9813 89.4164 91.1709 89.2271 90.2887C89.0378 89.4065 89.1349 88.4921 89.5063 87.661C89.8777 86.83 90.5066 86.1197 91.3135 85.62C92.1203 85.1202 93.069 84.8535 94.0394 84.8535C95.3408 84.8535 96.5888 85.3327 97.509 86.1856C98.4291 87.0385 98.9461 88.1953 98.9461 89.4015Z" fill="#006DCD"/>
<path opacity="0.2" d="M156.749 84.8546C156.749 85.7541 156.461 86.6334 155.922 87.3813C155.383 88.1292 154.616 88.7121 153.72 89.0563C152.823 89.4006 151.837 89.4906 150.885 89.3152C149.933 89.1397 149.059 88.7065 148.373 88.0705C147.686 87.4344 147.219 86.6241 147.03 85.7418C146.841 84.8596 146.938 83.9452 147.309 83.1142C147.68 82.2831 148.309 81.5728 149.116 81.0731C149.923 80.5734 150.872 80.3066 151.842 80.3066C153.143 80.3066 154.392 80.7858 155.312 81.6387C156.232 82.4916 156.749 83.6484 156.749 84.8546Z" fill="#006DCD"/>
<path opacity="0.2" d="M146.934 117.327C146.934 118.802 146.462 120.244 145.577 121.471C144.693 122.697 143.437 123.653 141.966 124.218C140.496 124.782 138.878 124.93 137.317 124.642C135.756 124.354 134.322 123.644 133.197 122.601C132.071 121.558 131.305 120.229 130.994 118.782C130.684 117.335 130.843 115.835 131.452 114.472C132.061 113.11 133.093 111.945 134.416 111.125C135.739 110.306 137.295 109.868 138.887 109.868C141.021 109.868 143.068 110.654 144.577 112.053C146.086 113.452 146.934 115.349 146.934 117.327Z" fill="#006DCD"/>
<path opacity="0.2" d="M121.372 138.585C121.372 140.555 120.742 142.481 119.561 144.118C118.38 145.756 116.702 147.033 114.739 147.787C112.775 148.541 110.614 148.738 108.53 148.354C106.446 147.969 104.531 147.021 103.028 145.628C101.525 144.235 100.502 142.46 100.087 140.528C99.6727 138.596 99.8855 136.593 100.699 134.773C101.512 132.954 102.889 131.398 104.656 130.304C106.424 129.209 108.501 128.625 110.626 128.625C113.476 128.625 116.209 129.674 118.225 131.542C120.24 133.41 121.372 135.943 121.372 138.585Z" fill="#006DCD"/>
<path d="M427.101 317.408C432.646 294.077 418.097 270.7 394.604 265.193C371.112 259.687 347.573 274.136 342.028 297.467C336.483 320.798 351.033 344.175 374.525 349.681C398.018 355.188 421.557 340.739 427.101 317.408Z" fill="#006DCD"/>
<path opacity="0.3" d="M427.101 317.408C432.646 294.077 418.097 270.7 394.604 265.193C371.112 259.687 347.573 274.136 342.028 297.467C336.483 320.798 351.033 344.175 374.525 349.681C398.018 355.188 421.557 340.739 427.101 317.408Z" fill="white"/>
<path opacity="0.4" d="M412.379 273.819C402.649 270.918 392.202 271.445 382.821 275.308C373.441 279.171 365.709 286.132 360.947 295C356.186 303.869 354.69 314.096 356.714 323.933C358.739 333.771 364.159 342.608 372.049 348.937C376.141 350.164 380.394 350.787 384.67 350.786C393.732 350.784 402.57 348.012 409.973 342.85C417.375 337.689 422.979 330.39 426.015 321.958C429.051 313.525 429.37 304.371 426.928 295.752C424.487 287.133 419.405 279.471 412.379 273.819Z" fill="#006DCD"/>
<path d="M342.542 320.527C295.755 342.177 330.646 358.874 396.577 335.565C457.631 313.982 480.899 286.774 426.204 295.223C429.144 306.541 352.684 335.834 342.542 320.527Z" fill="#006DCD"/>
<path opacity="0.2" d="M442.464 206.289C392.882 241.026 328.696 286.908 310.976 397.103H307.196C324.437 288.132 386.281 241.16 435.881 206.289H442.464Z" fill="black"/>
<path d="M185.978 415.999C154.631 415.999 123.636 405.514 108.534 388.401C99.2226 377.821 88.399 355.663 120.63 326.097L123.488 327.819C100.698 348.733 96.4937 369.715 111.632 386.911C130.071 407.824 173.568 418.35 210.704 410.859C248.743 403.191 271.829 378.668 274.06 343.58C281.675 223.552 367.693 186.577 430.495 159.581C469.531 142.809 497.724 130.698 491.528 105.123C490.661 101.583 488.762 99.1359 485.683 97.6323C477.662 93.7093 461.989 96.4294 443.845 99.5596C408.24 105.711 359.487 114.131 330.446 77.5114L333.636 76.1445C361.294 111.042 406.599 103.209 443.015 96.9215C461.989 93.6546 478.363 90.8251 487.711 95.3769C491.676 97.3043 494.11 100.352 495.087 104.672C501.743 132.119 471.116 145.296 432.302 161.973C370.219 188.655 285.216 225.192 277.692 343.771C275.369 380.131 251.288 405.569 211.608 413.565C203.248 415.216 194.629 416.034 185.978 415.999Z" fill="#006DCD"/>
<path opacity="0.2" d="M185.978 415.999C154.631 415.999 123.636 405.514 108.534 388.401C99.2226 377.821 88.399 355.663 120.63 326.097L123.488 327.819C100.698 348.733 96.4937 369.715 111.632 386.911C130.071 407.824 173.568 418.35 210.704 410.859C248.743 403.191 271.829 378.668 274.06 343.58C281.675 223.552 367.693 186.577 430.495 159.581C469.531 142.809 497.724 130.698 491.528 105.123C490.661 101.583 488.762 99.1359 485.683 97.6323C477.662 93.7093 461.989 96.4294 443.845 99.5596C408.24 105.711 359.487 114.131 330.446 77.5114L333.636 76.1445C361.294 111.042 406.599 103.209 443.015 96.9215C461.989 93.6546 478.363 90.8251 487.711 95.3769C491.676 97.3043 494.11 100.352 495.087 104.672C501.743 132.119 471.116 145.296 432.302 161.973C370.219 188.655 285.216 225.192 277.692 343.771C275.369 380.131 251.288 405.569 211.608 413.565C203.248 415.216 194.629 416.034 185.978 415.999Z" fill="white"/>
<path d="M292.48 32.6416C300.977 32.6924 309.417 34.0651 317.52 36.7137C317.52 36.7137 337.803 72.5976 340.2 80.8182C339.352 88.9241 326.168 102.211 326.168 102.211L292.48 32.6416Z" fill="#006DCD"/>
<path opacity="0.3" d="M292.48 32.6416C300.977 32.6924 309.417 34.0651 317.52 36.7137C317.52 36.7137 337.803 72.5976 340.2 80.8182C339.352 88.9241 326.168 102.211 326.168 102.211L292.48 32.6416Z" fill="white"/>
<path d="M352.554 206.862C344.743 196.96 337.62 186.495 331.239 175.547C329.69 172.781 328.221 169.965 326.832 167.097C326.039 165.472 325.283 163.847 324.545 162.203C323.577 160.603 322.827 158.873 322.314 157.06C320.102 132.838 328.104 115.001 320.47 95.5586L290.083 107.87C290.083 107.87 292.664 142.512 298.565 163.312C302.253 176.178 310.513 187.304 318.497 197.609C320.987 200.821 323.384 204.128 325.873 207.359C328.362 210.59 330.87 213.209 333.248 216.249C336.844 220.856 338.024 225.272 335.314 230.702L334.853 231.562C334.078 232.977 337.692 234.582 339.979 231.562C343.666 226.63 343.15 226.935 346.358 222.729C348.313 220.187 350.544 217.415 352.48 215.082C353.414 213.936 353.933 212.487 353.946 210.986C353.959 209.485 353.467 208.026 352.554 206.862Z" fill="#006DCD"/>
<path opacity="0.7" d="M352.554 206.862C344.743 196.96 337.62 186.495 331.239 175.547C329.69 172.781 328.221 169.965 326.832 167.097C326.039 165.472 325.283 163.847 324.545 162.203C323.577 160.603 322.827 158.873 322.314 157.06C320.102 132.838 328.104 115.001 320.47 95.5586L290.083 107.87C290.083 107.87 292.664 142.512 298.565 163.312C302.253 176.178 310.513 187.304 318.497 197.609C320.987 200.821 323.384 204.128 325.873 207.359C328.362 210.59 330.87 213.209 333.248 216.249C336.844 220.856 338.024 225.272 335.314 230.702L334.853 231.562C334.078 232.977 337.692 234.582 339.979 231.562C343.666 226.63 343.15 226.935 346.358 222.729C348.313 220.187 350.544 217.415 352.48 215.082C353.414 213.936 353.933 212.487 353.946 210.986C353.959 209.485 353.467 208.026 352.554 206.862Z" fill="white"/>
<path opacity="0.3" d="M345.123 196.899C340.301 202.259 334.949 207.077 329.155 211.276C329.948 212.194 330.723 213.188 331.515 214.067C337.316 210.004 342.585 205.178 347.188 199.71L345.123 196.899Z" fill="#006DCD"/>
<path opacity="0.3" d="M352.554 206.863L352.333 206.596C350.914 208.283 350.089 210.42 349.991 212.656C349.873 214.19 350.113 215.731 350.692 217.149L352.444 214.988C353.359 213.853 353.87 212.426 353.89 210.946C353.91 209.467 353.439 208.025 352.554 206.863Z" fill="#006DCD"/>
<path d="M285.253 55.5816C281.959 60.6958 278.007 65.3203 273.507 69.3272C271.012 71.557 268.277 73.4815 265.357 75.0625C263.823 75.8775 262.233 76.574 260.6 77.1463L259.346 77.5669L258.941 77.6816L258.074 77.9302C257.54 78.0615 256.998 78.1509 256.451 78.1978C254.896 78.3212 253.331 78.1725 251.823 77.7581C249.921 77.1984 248.099 76.3821 246.402 75.3302C245.037 74.5027 243.714 73.603 242.438 72.6346C240.132 70.8567 237.928 68.9417 235.837 66.8993C231.803 62.937 228.102 58.6264 224.773 54.0139C224.132 53.1154 223.814 52.013 223.873 50.897C223.932 49.7811 224.365 48.7215 225.098 47.9012C225.83 47.0809 226.815 46.5513 227.884 46.4038C228.952 46.2564 230.037 46.5002 230.951 47.0933H231.098C235.45 49.961 239.838 52.9816 244.116 55.6772C246.292 56.9963 248.394 58.3345 250.477 59.3669C251.428 59.8832 252.407 60.3428 253.409 60.7434C254.033 61.029 254.701 61.1973 255.382 61.2404C255.493 61.2404 255.382 61.1066 254.7 61.1257C254.485 61.1124 254.269 61.1124 254.054 61.1257L253.649 61.2213L254.257 60.8963C255.077 60.4393 255.871 59.935 256.636 59.386C258.286 58.1799 259.828 56.8235 261.246 55.3331C264.467 51.8329 267.484 48.1367 270.281 44.2639C271.813 42.4865 273.93 41.3669 276.218 41.1247C278.505 40.8825 280.797 41.5352 282.645 42.9548C284.492 44.3745 285.761 46.4585 286.202 48.798C286.644 51.1376 286.226 53.5638 285.032 55.6007L285.253 55.5816Z" fill="#006DCD"/>
<path opacity="0.7" d="M285.253 55.5816C281.959 60.6958 278.007 65.3203 273.507 69.3272C271.012 71.557 268.277 73.4815 265.357 75.0625C263.823 75.8775 262.233 76.574 260.6 77.1463L259.346 77.5669L258.941 77.6816L258.074 77.9302C257.54 78.0615 256.998 78.1509 256.451 78.1978C254.896 78.3212 253.331 78.1725 251.823 77.7581C249.921 77.1984 248.099 76.3821 246.402 75.3302C245.037 74.5027 243.714 73.603 242.438 72.6346C240.132 70.8567 237.928 68.9417 235.837 66.8993C231.803 62.937 228.102 58.6264 224.773 54.0139C224.132 53.1154 223.814 52.013 223.873 50.897C223.932 49.7811 224.365 48.7215 225.098 47.9012C225.83 47.0809 226.815 46.5513 227.884 46.4038C228.952 46.2564 230.037 46.5002 230.951 47.0933H231.098C235.45 49.961 239.838 52.9816 244.116 55.6772C246.292 56.9963 248.394 58.3345 250.477 59.3669C251.428 59.8832 252.407 60.3428 253.409 60.7434C254.033 61.029 254.701 61.1973 255.382 61.2404C255.493 61.2404 255.382 61.1066 254.7 61.1257C254.485 61.1124 254.269 61.1124 254.054 61.1257L253.649 61.2213L254.257 60.8963C255.077 60.4393 255.871 59.935 256.636 59.386C258.286 58.1799 259.828 56.8235 261.246 55.3331C264.467 51.8329 267.484 48.1367 270.281 44.2639C271.813 42.4865 273.93 41.3669 276.218 41.1247C278.505 40.8825 280.797 41.5352 282.645 42.9548C284.492 44.3745 285.761 46.4585 286.202 48.798C286.644 51.1376 286.226 53.5638 285.032 55.6007L285.253 55.5816Z" fill="white"/>
<path d="M217.859 43.0031L220.016 46.8266C220.016 46.8266 221.657 51.8355 224.958 52.7531L233.919 49.7516L233.458 48.9678C232.315 47.1707 232.444 43.6722 232.831 40.7663C233.218 37.8604 231.78 37.7648 230.71 38.4913C229.953 39.3952 229.421 40.4785 229.162 41.6457C228.722 41.0144 228.235 40.4199 227.705 39.8678L224.976 37.0384C224.404 36.4582 223.641 36.1239 222.84 36.1026C222.04 36.0814 221.262 36.3747 220.661 36.9237L218.449 38.9692C217.924 39.4726 217.579 40.1461 217.472 40.879C217.365 41.612 217.501 42.361 217.859 43.0031Z" fill="#006DCD"/>
<path opacity="0.7" d="M217.859 43.0031L220.016 46.8266C220.016 46.8266 221.657 51.8355 224.958 52.7531L233.919 49.7516L233.458 48.9678C232.315 47.1707 232.444 43.6722 232.831 40.7663C233.218 37.8604 231.78 37.7648 230.71 38.4913C229.953 39.3952 229.421 40.4785 229.162 41.6457C228.722 41.0144 228.235 40.4199 227.705 39.8678L224.976 37.0384C224.404 36.4582 223.641 36.1239 222.84 36.1026C222.04 36.0814 221.262 36.3747 220.661 36.9237L218.449 38.9692C217.924 39.4726 217.579 40.1461 217.472 40.879C217.365 41.612 217.501 42.361 217.859 43.0031Z" fill="white"/>
<path d="M301.535 29.2377C291.595 31.9694 282.074 36.133 273.249 41.6069C271.873 42.5002 270.792 43.8085 270.153 45.3563C269.514 46.9042 269.346 48.6177 269.672 50.2672C273.231 68.3143 281.326 92.4791 290.066 107.869L330.834 90.3761C331.111 82.9202 321.209 58.7937 311.123 35.4701C309.316 31.2833 305.831 28.1671 301.535 29.2377Z" fill="#006DCD"/>
<path opacity="0.8" d="M301.535 29.2377C291.595 31.9694 282.074 36.133 273.249 41.6069C271.873 42.5002 270.792 43.8085 270.153 45.3563C269.514 46.9042 269.346 48.6177 269.672 50.2672C273.231 68.3143 281.326 92.4791 290.066 107.869L330.834 90.3761C331.111 82.9202 321.209 58.7937 311.123 35.4701C309.316 31.2833 305.831 28.1671 301.535 29.2377Z" fill="white"/>
<path opacity="0.3" d="M317.447 50.2478L309.353 47.4375C311.196 52.3507 317.705 58.564 322.26 62.2155C320.785 58.3919 319.144 54.3772 317.447 50.2478Z" fill="#006DCD"/>
<path d="M298.86 10.3115C295.486 3.65856 288.203 0.312975 279.463 1.05856C272.087 1.70857 265.56 9.50858 266.334 13.7145C267.109 17.9204 273.304 19.7174 274.484 21.1704L269.377 24.9939C268.771 25.4467 268.261 26.0218 267.876 26.6844C267.491 27.3471 267.239 28.0837 267.136 28.8499C267.032 29.6161 267.08 30.3961 267.275 31.1429C267.47 31.8897 267.808 32.5879 268.27 33.1954C270.428 36.0248 273.267 38.9307 274.908 41.0719C289.032 40.6896 299.487 35.1072 303.267 29.7351C301.847 22.9292 302.142 16.9262 298.86 10.3115Z" fill="#006DCD"/>
<path opacity="0.8" d="M298.86 10.3115C295.486 3.65856 288.203 0.312975 279.463 1.05856C272.087 1.70857 265.56 9.50858 266.334 13.7145C267.109 17.9204 273.304 19.7174 274.484 21.1704L269.377 24.9939C268.771 25.4467 268.261 26.0218 267.876 26.6844C267.491 27.3471 267.239 28.0837 267.136 28.8499C267.032 29.6161 267.08 30.3961 267.275 31.1429C267.47 31.8897 267.808 32.5879 268.27 33.1954C270.428 36.0248 273.267 38.9307 274.908 41.0719C289.032 40.6896 299.487 35.1072 303.267 29.7351C301.847 22.9292 302.142 16.9262 298.86 10.3115Z" fill="white"/>
<path d="M291.927 14.4395C292.929 17.1057 293.147 20.0202 292.553 22.8147C291.958 25.6092 290.578 28.1582 288.586 30.1395C286.594 32.1207 284.081 33.4454 281.364 33.9459C278.646 34.4465 275.846 34.1004 273.318 32.9516C270.791 31.8028 268.648 29.9027 267.161 27.4915C265.675 25.0804 264.911 22.2664 264.967 19.4053C265.022 16.5442 265.895 13.7644 267.474 11.4173C269.053 9.07023 271.268 7.2612 273.838 6.2189C277.288 4.82528 281.131 4.90821 284.523 6.44949C287.914 7.99077 290.577 10.8644 291.927 14.4395Z" fill="#263238"/>
<path d="M411.649 186.731C411.446 180.441 411.169 180.996 411.003 175.7C410.893 172.45 410.874 168.837 410.856 165.721C410.849 164.241 410.351 162.809 409.444 161.666C408.536 160.524 407.277 159.741 405.877 159.45C403.443 158.934 400.991 158.456 398.502 157.921C395.312 157.213 392.159 156.449 389.042 155.512C386.609 154.785 384.211 153.983 381.833 153.084C379.454 152.185 376.781 151.172 374.31 149.987C371.396 148.706 368.52 147.33 365.68 145.896C362.49 144.328 359.337 142.684 356.184 141.021C344.052 120.202 343.793 106.475 330.776 90.3779L302.822 103.493C302.822 103.493 323.363 141.269 337.34 157.29C345.398 166.505 358.028 170.672 369.294 173.693C377.426 175.853 385.668 177.516 393.91 179.103C397.119 179.715 400.604 179.944 403.369 181.933C405.416 183.559 406.819 185.905 407.315 188.528C407.438 189.063 407.549 189.599 407.647 190.134C407.998 191.74 411.778 190.516 411.649 186.731Z" fill="#006DCD"/>
<path opacity="0.8" d="M411.649 186.731C411.446 180.441 411.169 180.996 411.003 175.7C410.893 172.45 410.874 168.837 410.856 165.721C410.849 164.241 410.351 162.809 409.444 161.666C408.536 160.524 407.277 159.741 405.877 159.45C403.443 158.934 400.991 158.456 398.502 157.921C395.312 157.213 392.159 156.449 389.042 155.512C386.609 154.785 384.211 153.983 381.833 153.084C379.454 152.185 376.781 151.172 374.31 149.987C371.396 148.706 368.52 147.33 365.68 145.896C362.49 144.328 359.337 142.684 356.184 141.021C344.052 120.202 343.793 106.475 330.776 90.3779L302.822 103.493C302.822 103.493 323.363 141.269 337.34 157.29C345.398 166.505 358.028 170.672 369.294 173.693C377.426 175.853 385.668 177.516 393.91 179.103C397.119 179.715 400.604 179.944 403.369 181.933C405.416 183.559 406.819 185.905 407.315 188.528C407.438 189.063 407.549 189.599 407.647 190.134C407.998 191.74 411.778 190.516 411.649 186.731Z" fill="white"/>
<path opacity="0.3" d="M397.472 157.671C396.365 157.423 395.259 157.174 394.134 156.888C394.226 163.502 391.239 174.897 390.151 178.357L393.655 179.045C395.951 172.159 397.237 164.954 397.472 157.671Z" fill="#006DCD"/>
<path opacity="0.3" d="M410.932 165.72C410.927 164.243 410.43 162.813 409.527 161.67C408.623 160.528 407.368 159.744 405.972 159.449L404.128 159.086C404.424 161.259 405.497 163.238 407.133 164.63C408.186 165.639 409.448 166.385 410.821 166.809C410.932 166.465 410.932 166.083 410.932 165.72Z" fill="#006DCD"/>
<path d="M289.328 14.5559C290.066 17.4618 286.931 20.5015 284.442 17.9971C282.118 15.4144 279.576 13.0534 276.845 10.9426C274.282 9.27941 277.693 6.37351 281.731 7.50146C283.454 7.95029 285.046 8.82701 286.37 10.056C287.693 11.285 288.709 12.8294 289.328 14.5559Z" fill="white"/>
<path d="M289.531 106.933C288.24 107.43 290.6 109.724 290.6 109.724C290.6 109.724 316.414 100.567 332.087 91.1417C332.125 90.5711 332.031 89.9994 331.813 89.474C331.595 88.9486 331.259 88.4848 330.834 88.1211C317.42 95.1957 303.63 101.476 289.531 106.933Z" fill="#006DCD"/>
<path opacity="0.5" d="M289.531 106.933C288.24 107.43 290.6 109.724 290.6 109.724C290.6 109.724 316.414 100.567 332.087 91.1417C332.125 90.5711 332.031 89.9994 331.813 89.474C331.595 88.9486 331.259 88.4848 330.834 88.1211C317.42 95.1957 303.63 101.476 289.531 106.933Z" fill="white"/>
<path d="M308.522 27.9746C313.612 30.6511 318.387 33.4614 323.273 36.5776C325.652 38.1452 328.012 39.732 330.354 41.4526C332.696 43.1732 335.019 44.932 337.361 46.9202L338.227 47.6658L339.315 48.6982C339.964 49.2996 340.579 49.9378 341.159 50.61C341.749 51.2791 342.247 51.9291 342.727 52.5217C343.206 53.1144 343.722 53.8217 344.146 54.4335C345.865 56.8912 347.453 59.444 348.903 62.0806C351.761 67.1933 354.227 72.5308 356.279 78.0439C356.658 79.0855 356.678 80.2311 356.335 81.2861C355.991 82.341 355.306 83.24 354.395 83.8303C353.485 84.4206 352.405 84.6657 351.34 84.5239C350.275 84.3822 349.29 83.8623 348.553 83.0527L348.461 82.938C344.773 78.8659 341.215 74.5835 337.637 70.588C334.06 66.5924 330.428 62.5394 327.422 60.7615C323.237 58.0659 318.572 55.3703 313.943 52.732L300.004 44.7026C297.842 43.5161 296.224 41.488 295.504 39.0644C294.785 36.6407 295.024 34.0201 296.168 31.779C297.313 29.5379 299.269 27.86 301.606 27.1142C303.944 26.3685 306.471 26.6161 308.633 27.8025L308.522 27.9746Z" fill="#006DCD"/>
<path opacity="0.8" d="M308.522 27.9746C313.612 30.6511 318.387 33.4614 323.273 36.5776C325.652 38.1452 328.012 39.732 330.354 41.4526C332.696 43.1732 335.019 44.932 337.361 46.9202L338.227 47.6658L339.315 48.6982C339.964 49.2996 340.579 49.9378 341.159 50.61C341.749 51.2791 342.247 51.9291 342.727 52.5217C343.206 53.1144 343.722 53.8217 344.146 54.4335C345.865 56.8912 347.453 59.444 348.903 62.0806C351.761 67.1933 354.227 72.5308 356.279 78.0439C356.658 79.0855 356.678 80.2311 356.335 81.2861C355.991 82.341 355.306 83.24 354.395 83.8303C353.485 84.4206 352.405 84.6657 351.34 84.5239C350.275 84.3822 349.29 83.8623 348.553 83.0527L348.461 82.938C344.773 78.8659 341.215 74.5835 337.637 70.588C334.06 66.5924 330.428 62.5394 327.422 60.7615C323.237 58.0659 318.572 55.3703 313.943 52.732L300.004 44.7026C297.842 43.5161 296.224 41.488 295.504 39.0644C294.785 36.6407 295.024 34.0201 296.168 31.779C297.313 29.5379 299.269 27.86 301.606 27.1142C303.944 26.3685 306.471 26.6161 308.633 27.8025L308.522 27.9746Z" fill="white"/>
<path d="M360.65 87.5854L359.082 83.5133C359.082 83.5133 358.216 78.3133 355.1 76.8604L345.88 78.3707L346.194 79.2118C347.042 81.1236 346.396 84.6221 345.567 87.4133C344.737 90.2045 346.138 90.5677 347.318 90.0133C347.982 89.7075 348.628 88.4648 349.328 87.1457C349.672 87.8102 350.06 88.4491 350.49 89.0575L352.758 92.2883C353.232 92.9579 353.932 93.4167 354.719 93.5727C355.506 93.7288 356.32 93.5704 356.999 93.1295L359.506 91.4663C360.093 91.0498 360.526 90.4388 360.734 89.7335C360.942 89.0283 360.912 88.2708 360.65 87.5854Z" fill="#006DCD"/>
<path opacity="0.8" d="M360.65 87.5854L359.082 83.5133C359.082 83.5133 358.216 78.3133 355.1 76.8604L345.88 78.3707L346.194 79.2118C347.042 81.1236 346.396 84.6221 345.567 87.4133C344.737 90.2045 346.138 90.5677 347.318 90.0133C347.982 89.7075 348.628 88.4648 349.328 87.1457C349.672 87.8102 350.06 88.4491 350.49 89.0575L352.758 92.2883C353.232 92.9579 353.932 93.4167 354.719 93.5727C355.506 93.7288 356.32 93.5704 356.999 93.1295L359.506 91.4663C360.093 91.0498 360.526 90.4388 360.734 89.7335C360.942 89.0283 360.912 88.2708 360.65 87.5854Z" fill="white"/>
<path opacity="0.3" d="M300.741 49.9619L298.491 50.1531L284.681 84.7179C285.436 84.7742 286.194 84.7097 286.93 84.5267C286.93 84.5267 304.927 77.5679 310.366 74.9679C306.715 67.1487 300.741 49.9619 300.741 49.9619Z" fill="#006DCD"/>
<path d="M275.536 59.0239C277.214 68.0593 280.33 76.7425 284.756 84.7181C291.504 82.3093 302.752 77.7593 308.21 75.1593C304.541 67.0054 301.286 58.6588 298.456 50.1533C292.684 50.5548 280.017 55.5827 275.536 59.0239Z" fill="white"/>
<path opacity="0.3" d="M289.234 66.4994C288.965 67.4343 288.434 68.2653 287.708 68.8873C286.983 69.5092 286.096 69.8942 285.16 69.9934C284.224 70.0927 283.28 69.9018 282.449 69.4449C281.617 68.988 280.935 68.2857 280.488 67.4267C280.042 66.5677 279.851 65.5908 279.94 64.6194C280.03 63.648 280.395 62.7258 280.989 61.9696C281.584 61.2134 282.382 60.657 283.282 60.371C284.181 60.0849 285.143 60.082 286.044 60.3626C287.252 60.7385 288.266 61.596 288.864 62.7466C289.462 63.8973 289.595 65.247 289.234 66.4994Z" fill="#006DCD"/>
<path opacity="0.6" d="M292.757 59.9222C292.685 60.2413 292.522 60.5305 292.288 60.7517C292.055 60.9729 291.763 61.1158 291.45 61.1617C291.137 61.2076 290.818 61.1544 290.535 61.0089C290.252 60.8635 290.017 60.6326 289.863 60.3467C289.709 60.0608 289.641 59.7331 289.669 59.4068C289.698 59.0804 289.821 58.7706 290.022 58.5179C290.223 58.2652 290.494 58.0816 290.797 57.991C291.101 57.9005 291.424 57.9072 291.724 58.0104C292.098 58.1343 292.412 58.4006 292.604 58.7554C292.795 59.1102 292.85 59.5272 292.757 59.9222Z" fill="#006DCD"/>
<path opacity="0.6" d="M296.886 58.2604C296.842 58.4821 296.755 58.6921 296.629 58.8768C296.503 59.0615 296.341 59.2169 296.154 59.3329C295.966 59.449 295.758 59.5233 295.541 59.5509C295.324 59.5786 295.105 59.559 294.896 59.4935C294.687 59.428 294.494 59.318 294.328 59.1705C294.163 59.023 294.028 58.8413 293.935 58.6371C293.841 58.4328 293.789 58.2105 293.783 57.9843C293.777 57.7581 293.816 57.5331 293.899 57.3236C293.958 57.1213 294.055 56.9331 294.184 56.7697C294.313 56.6063 294.472 56.471 294.652 56.3715C294.832 56.2721 295.029 56.2104 295.232 56.1901C295.435 56.1697 295.64 56.1911 295.835 56.253C296.229 56.377 296.561 56.6572 296.758 57.0329C296.954 57.4087 297 57.8497 296.886 58.2604Z" fill="#006DCD"/>
<path opacity="0.5" d="M302.677 73.1513L285.621 80.1292L284.606 76.6498L301.644 69.6719L302.677 73.1513Z" fill="#006DCD"/>
<path opacity="0.2" d="M250.334 196.601C250.303 204.565 249.48 212.509 247.875 220.331C246.148 227.361 243.464 232.503 239.824 235.758C238.128 237.331 236.115 238.573 233.901 239.411C231.687 240.249 229.316 240.667 226.927 240.641C219.403 240.641 213.66 236.807 209.698 229.139C209.002 227.761 208.41 226.34 207.927 224.885C199.559 231.6 191.767 238.917 184.623 246.769L176.85 255.33C181.033 259.292 185.859 262.611 191.151 265.164C200.266 269.568 212.231 271.775 227.045 271.784C229.65 271.784 232.168 271.716 234.613 271.579C243.575 259.188 250.991 245.881 256.717 231.915L278.455 178.957L250.334 196.601Z" fill="black"/>
<path d="M54.3721 268.857L79.9892 292.792L151.717 229.645C126.993 220.823 78.9206 245.866 54.3721 268.857Z" fill="#263238"/>
<path d="M143.709 352.288C135.526 344.629 118.092 328.353 118.092 328.353L185.677 261.335C195.06 284.381 168.257 329.338 143.709 352.288Z" fill="#263238"/>
<path d="M241.757 201.429L269.702 151.083L215.818 177.22C198.51 185.607 182.53 196.193 168.331 208.678L76.4756 289.469L121.606 331.636L208.074 245.811C221.442 232.542 232.778 217.606 241.757 201.429Z" fill="#006DCD"/>
<path opacity="0.6" d="M241.757 201.429L269.702 151.083L215.818 177.22C198.51 185.607 182.53 196.193 168.331 208.678L76.4756 289.469L121.606 331.636L208.074 245.811C221.442 232.542 232.778 217.606 241.757 201.429Z" fill="white"/>
<path d="M184.375 248.451C194.804 248.451 203.258 240.552 203.258 230.808C203.258 221.063 194.804 213.164 184.375 213.164C173.946 213.164 165.491 221.063 165.491 230.808C165.491 240.552 173.946 248.451 184.375 248.451Z" fill="white"/>
<path d="M184.375 242.145C191.078 242.145 196.511 237.068 196.511 230.806C196.511 224.544 191.078 219.468 184.375 219.468C177.673 219.468 172.24 224.544 172.24 230.806C172.24 237.068 177.673 242.145 184.375 242.145Z" fill="#006DCD"/>
<path opacity="0.3" d="M136.872 316.48L92.6787 275.188L128.865 243.375L170.921 282.683L136.872 316.48Z" fill="#006DCD"/>
<path d="M64.3692 306.634C31.2865 309.137 20.3224 328.928 16.575 355.229C14.672 368.646 13.8229 382.228 1.77557 390.078C1.05081 390.539 0.50513 391.206 0.22025 391.98C-0.06463 392.754 -0.0733781 393.594 0.195311 394.373C0.464001 395.153 0.995675 395.83 1.7107 396.303C2.42573 396.776 3.28562 397.021 4.16161 396.999C48.5744 395.7 69.2877 375.389 71.8933 366.909C71.2094 371.342 69.9865 375.688 68.2484 379.862C67.9289 380.598 67.8663 381.41 68.0696 382.182C68.2729 382.953 68.7317 383.645 69.3806 384.159C70.0294 384.673 70.8353 384.982 71.6834 385.043C72.5315 385.104 73.3785 384.913 74.1037 384.498C86.561 377.208 102.195 363.777 103.234 341.989C94.0705 329.858 64.3692 306.634 64.3692 306.634Z" fill="#006DCD"/>
<path opacity="0.2" d="M64.3692 306.634C31.2865 309.137 20.3224 328.928 16.575 355.229C14.672 368.646 13.8229 382.228 1.77557 390.078C1.05081 390.539 0.50513 391.206 0.22025 391.98C-0.06463 392.754 -0.0733781 393.594 0.195311 394.373C0.464001 395.153 0.995675 395.83 1.7107 396.303C2.42573 396.776 3.28562 397.021 4.16161 396.999C48.5744 395.7 69.2877 375.389 71.8933 366.909C71.2094 371.342 69.9865 375.688 68.2484 379.862C67.9289 380.598 67.8663 381.41 68.0696 382.182C68.2729 382.953 68.7317 383.645 69.3806 384.159C70.0294 384.673 70.8353 384.982 71.6834 385.043C72.5315 385.104 73.3785 384.913 74.1037 384.498C86.561 377.208 102.195 363.777 103.234 341.989C94.0705 329.858 64.3692 306.634 64.3692 306.634Z" fill="white"/>
<path d="M108.373 351.329L55.3818 301.818L83.6046 296.114L114.477 324.959L108.373 351.329Z" fill="#006DCD"/>
</svg>
