<svg width="20" height="18" viewBox="0 0 20 18" fill="none" xmlns="http://www.w3.org/2000/svg">
<path d="M17.9993 10.248H11.3327V16.498C11.3327 16.8296 11.1922 17.1475 10.9422 17.3819C10.6921 17.6164 10.353 17.748 9.99935 17.748C9.64573 17.748 9.30659 17.6164 9.05654 17.3819C8.80649 17.1475 8.66602 16.8296 8.66602 16.498V10.248H1.99935C1.64573 10.248 1.30659 10.1164 1.05654 9.88193C0.806492 9.64751 0.666016 9.32957 0.666016 8.99805C0.666016 8.66653 0.806492 8.34858 1.05654 8.11416C1.30659 7.87974 1.64573 7.74805 1.99935 7.74805H8.66602V1.49805C8.66602 1.16653 8.80649 0.848584 9.05654 0.614163C9.30659 0.379743 9.64573 0.248047 9.99935 0.248047C10.353 0.248047 10.6921 0.379743 10.9422 0.614163C11.1922 0.848584 11.3327 1.16653 11.3327 1.49805V7.74805H17.9993C18.353 7.74805 18.6921 7.87974 18.9422 8.11416C19.1922 8.34858 19.3327 8.66653 19.3327 8.99805C19.3327 9.32957 19.1922 9.64751 18.9422 9.88193C18.6921 10.1164 18.353 10.248 17.9993 10.248Z" fill="black"/>
</svg>
