<svg width="22" height="22" viewBox="0 0 22 22" fill="none" xmlns="http://www.w3.org/2000/svg">
<path d="M11.0257 15.7942C11.2286 15.7942 11.3997 15.7245 11.539 15.5852C11.6777 15.4446 11.7471 15.2735 11.7471 15.0718C11.7471 14.8689 11.6771 14.6978 11.5372 14.5585C11.3972 14.4192 11.2261 14.3495 11.0238 14.3495C10.8209 14.3495 10.6498 14.4195 10.5105 14.5594C10.3712 14.6994 10.3015 14.8705 10.3015 15.0728C10.3015 15.2756 10.3718 15.4468 10.5123 15.5861C10.6517 15.7254 10.8228 15.7951 11.0257 15.7951V15.7942ZM10.5527 12.76H11.4373C11.4605 12.3609 11.5353 12.0371 11.6618 11.7883C11.7883 11.539 12.0484 11.2212 12.4419 10.835C12.8514 10.4256 13.1557 10.0589 13.3549 9.735C13.5548 9.41111 13.6547 9.0365 13.6547 8.61117C13.6547 7.88883 13.4011 7.31317 12.8938 6.88417C12.386 6.45517 11.7853 6.24067 11.0917 6.24067C10.4323 6.24067 9.8725 6.41972 9.41233 6.77783C8.95217 7.13656 8.61514 7.54844 8.40125 8.0135L9.24458 8.36275C9.39125 8.02908 9.60117 7.73422 9.87433 7.47817C10.1475 7.2215 10.5417 7.09317 11.0568 7.09317C11.6514 7.09317 12.0853 7.25633 12.3585 7.58267C12.6329 7.909 12.7701 8.26772 12.7701 8.65883C12.7701 8.97661 12.6842 9.26017 12.5125 9.5095C12.3414 9.75944 12.1183 10.0106 11.8433 10.263C11.3117 10.7531 10.9633 11.1687 10.7983 11.5097C10.6346 11.8501 10.5527 12.2665 10.5527 12.7591V12.76ZM11.0028 19.25C9.86242 19.25 8.78992 19.0337 7.78525 18.601C6.78119 18.1677 5.90761 17.5798 5.1645 16.8373C4.42139 16.0954 3.83319 15.2228 3.39992 14.2193C2.96664 13.2159 2.75 12.1437 2.75 11.0028C2.75 9.86242 2.96633 8.78992 3.399 7.78525C3.83228 6.78119 4.42017 5.90761 5.16267 5.1645C5.90456 4.42139 6.77722 3.83319 7.78067 3.39992C8.78411 2.96664 9.85631 2.75 10.9972 2.75C12.1376 2.75 13.2101 2.96633 14.2148 3.399C15.2188 3.83228 16.0924 4.42017 16.8355 5.16267C17.5786 5.90456 18.1668 6.77722 18.6001 7.78067C19.0334 8.78411 19.25 9.85631 19.25 10.9972C19.25 12.1376 19.0337 13.2101 18.601 14.2148C18.1677 15.2188 17.5798 16.0924 16.8373 16.8355C16.0954 17.5786 15.2228 18.1668 14.2193 18.6001C13.2159 19.0334 12.1437 19.25 11.0028 19.25ZM11 18.3333C13.0472 18.3333 14.7812 17.6229 16.2021 16.2021C17.6229 14.7812 18.3333 13.0472 18.3333 11C18.3333 8.95278 17.6229 7.21875 16.2021 5.79792C14.7812 4.37708 13.0472 3.66667 11 3.66667C8.95278 3.66667 7.21875 4.37708 5.79792 5.79792C4.37708 7.21875 3.66667 8.95278 3.66667 11C3.66667 13.0472 4.37708 14.7812 5.79792 16.2021C7.21875 17.6229 8.95278 18.3333 11 18.3333Z" fill="white"/>
</svg>
