<?xml version="1.0" encoding="UTF-8" standalone="no"?>
<svg
   height="24"
   viewBox="0 -960 960 960"
   width="24"
   version="1.1"
   id="svg1"
   sodipodi:docname="icon-matching.svg"
   inkscape:version="1.3.2 (1:1.3.2+202311252150+091e20ef0f)"
   xmlns:inkscape="http://www.inkscape.org/namespaces/inkscape"
   xmlns:sodipodi="http://sodipodi.sourceforge.net/DTD/sodipodi-0.dtd"
   xmlns="http://www.w3.org/2000/svg"
   xmlns:svg="http://www.w3.org/2000/svg">
  <defs
     id="defs1" />
  <sodipodi:namedview
     id="namedview1"
     pagecolor="#ffffff"
     bordercolor="#000000"
     borderopacity="0.25"
     inkscape:showpageshadow="2"
     inkscape:pageopacity="0.0"
     inkscape:pagecheckerboard="0"
     inkscape:deskcolor="#d1d1d1"
     inkscape:zoom="7.7395833"
     inkscape:cx="-0.19380888"
     inkscape:cy="8.5921938"
     inkscape:window-width="1920"
     inkscape:window-height="1007"
     inkscape:window-x="0"
     inkscape:window-y="0"
     inkscape:window-maximized="1"
     inkscape:current-layer="svg1" />
  <path
     d="M320-200q-117 0-198.5-81.5T40-480q0-117 81.5-198.5T320-760q27 0 52.5 5t49.5 14q-58 49-90 117t-32 144q0 76 32 144t90 117q-24 9-49.5 14t-52.5 5Zm320 0q-27 0-52.5-5T538-219q17-14 32-30.5t28-34.5q11 2 21 3t21 1q83 0 141.5-58.5T840-480q0-83-58.5-141.5T640-680q-11 0-21 1t-21 3q-13-18-28-34.5T538-741q24-9 49.5-14t52.5-5q117 0 198.5 81.5T920-480q0 117-81.5 198.5T640-200Zm-160-50q-57-39-88.5-100T360-480q0-69 31.5-130T480-710q57 39 88.5 100T600-480q0 69-31.5 130T480-250Z"
     id="path1"
     style="fill:#ffffff;fill-opacity:1" />
</svg>
