<svg width="18" height="18" viewBox="0 0 18 18" fill="none" xmlns="http://www.w3.org/2000/svg">
<path d="M11.6191 13.6585C13.327 13.4563 15.0051 13.0532 16.6186 12.4577C15.2522 10.9441 14.4972 8.97662 14.5002 6.9375V6.25C14.5002 4.79131 13.9207 3.39236 12.8893 2.36091C11.8578 1.32946 10.4589 0.75 9.00019 0.75C7.5415 0.75 6.14256 1.32946 5.11111 2.36091C4.07966 3.39236 3.50019 4.79131 3.50019 6.25V6.9375C3.50296 8.97674 2.7476 10.9442 1.38086 12.4577C2.96944 13.0443 4.64419 13.4523 6.38128 13.6585M11.6191 13.6585C9.87926 13.8649 8.12112 13.8649 6.38128 13.6585M11.6191 13.6585C11.7512 14.0709 11.7841 14.5086 11.715 14.9361C11.6459 15.3635 11.4769 15.7687 11.2216 16.1184C10.9664 16.4682 10.6321 16.7528 10.2461 16.949C9.8601 17.1452 9.43321 17.2474 9.00019 17.2474C8.56718 17.2474 8.14029 17.1452 7.75427 16.949C7.36825 16.7528 7.03401 16.4682 6.77876 16.1184C6.52352 15.7687 6.35448 15.3635 6.28541 14.9361C6.21633 14.5086 6.24918 14.0709 6.38128 13.6585" stroke="white" stroke-width="1.5" stroke-linecap="round" stroke-linejoin="round"/>
</svg>
