<svg width="9" height="10" viewBox="0 0 9 10" fill="none" xmlns="http://www.w3.org/2000/svg">
<g clip-path="url(#clip0_6064_1107)">
<path d="M4.5 1.34375C3.10254 1.34375 1.96875 2.42287 1.96875 3.75195C1.96875 5.28125 3.65625 7.70475 4.27588 8.54182C4.3016 8.57715 4.33531 8.6059 4.37426 8.62573C4.41321 8.64555 4.4563 8.65589 4.5 8.65589C4.5437 8.65589 4.58679 8.64555 4.62574 8.62573C4.66469 8.6059 4.6984 8.57715 4.72412 8.54182C5.34375 7.7051 7.03125 5.28248 7.03125 3.75195C7.03125 2.42287 5.89746 1.34375 4.5 1.34375Z" stroke="#EA352B" stroke-linecap="round" stroke-linejoin="round"/>
<path d="M4.5 4.71875C4.96599 4.71875 5.34375 4.34099 5.34375 3.875C5.34375 3.40901 4.96599 3.03125 4.5 3.03125C4.03401 3.03125 3.65625 3.40901 3.65625 3.875C3.65625 4.34099 4.03401 4.71875 4.5 4.71875Z" stroke="#EA352B" stroke-linecap="round" stroke-linejoin="round"/>
</g>
<defs>
<clipPath id="clip0_6064_1107">
<rect width="9" height="9" fill="white" transform="translate(0 0.5)"/>
</clipPath>
</defs>
</svg>
