<svg width="22" height="22" viewBox="0 0 22 22" fill="none" xmlns="http://www.w3.org/2000/svg">
<g clip-path="url(#clip0_8431_1297)">
<path d="M10.9994 15.5837C9.7313 15.5837 8.65024 15.1366 7.75619 14.2426C6.86213 13.3485 6.41541 12.2678 6.41602 11.0003C6.41602 9.73227 6.86305 8.65122 7.7571 7.75716C8.65116 6.86311 9.73191 6.41638 10.9994 6.417C12.2674 6.417 13.3485 6.86402 14.2425 7.75808C15.1366 8.65213 15.5833 9.73288 15.5827 11.0003C15.5827 12.2684 15.1357 13.3494 14.2416 14.2435C13.3475 15.1376 12.2668 15.5843 10.9994 15.5837ZM1.83269 11.917C1.57296 11.917 1.3551 11.829 1.1791 11.653C1.0031 11.477 0.915408 11.2594 0.916019 11.0003C0.916019 10.7406 1.00402 10.5227 1.18002 10.3467C1.35602 10.1707 1.57357 10.0831 1.83269 10.0837H3.66602C3.92574 10.0837 4.1436 10.1717 4.3196 10.3477C4.4956 10.5237 4.5833 10.7412 4.58269 11.0003C4.58269 11.2601 4.49469 11.4779 4.31869 11.6539C4.14269 11.8299 3.92513 11.9176 3.66602 11.917H1.83269ZM18.3327 11.917C18.073 11.917 17.8551 11.829 17.6791 11.653C17.5031 11.477 17.4154 11.2594 17.416 11.0003C17.416 10.7406 17.504 10.5227 17.68 10.3467C17.856 10.1707 18.0736 10.0831 18.3327 10.0837H20.166C20.4257 10.0837 20.6436 10.1717 20.8196 10.3477C20.9956 10.5237 21.0833 10.7412 21.0827 11.0003C21.0827 11.2601 20.9947 11.4779 20.8187 11.6539C20.6427 11.8299 20.4251 11.9176 20.166 11.917H18.3327ZM10.9994 4.58366C10.7396 4.58366 10.5218 4.49566 10.3458 4.31966C10.1698 4.14366 10.0821 3.92611 10.0827 3.667V1.83366C10.0827 1.57394 10.1707 1.35608 10.3467 1.18008C10.5227 1.00408 10.7402 0.916384 10.9994 0.916995C11.2591 0.916995 11.4769 1.005 11.6529 1.181C11.8289 1.357 11.9166 1.57455 11.916 1.83366V3.667C11.916 3.92672 11.828 4.14458 11.652 4.32058C11.476 4.49658 11.2585 4.58427 10.9994 4.58366ZM10.9994 21.0837C10.7396 21.0837 10.5218 20.9957 10.3458 20.8197C10.1698 20.6437 10.0821 20.4261 10.0827 20.167V18.3337C10.0827 18.0739 10.1707 17.8561 10.3467 17.6801C10.5227 17.5041 10.7402 17.4164 10.9994 17.417C11.2591 17.417 11.4769 17.505 11.6529 17.681C11.8289 17.857 11.9166 18.0746 11.916 18.3337V20.167C11.916 20.4267 11.828 20.6446 11.652 20.8206C11.476 20.9966 11.2585 21.0843 10.9994 21.0837ZM5.17852 6.46283L4.1931 5.50033C4.00977 5.33227 3.92177 5.11838 3.9291 4.85866C3.93644 4.59894 4.02444 4.37741 4.1931 4.19408C4.37644 4.01075 4.59796 3.91908 4.85769 3.91908C5.11741 3.91908 5.3313 4.01075 5.49935 4.19408L6.46185 5.1795C6.62991 5.36283 6.71394 5.57672 6.71394 5.82116C6.71394 6.06561 6.62991 6.2795 6.46185 6.46283C6.2938 6.64616 6.08388 6.73416 5.8321 6.72683C5.58032 6.7195 5.36246 6.6315 5.17852 6.46283ZM16.4994 17.8066L15.5369 16.8212C15.3688 16.6378 15.2848 16.42 15.2848 16.1676C15.2848 15.9152 15.3688 15.7053 15.5369 15.5378C15.7049 15.3545 15.9151 15.2668 16.1675 15.2747C16.4199 15.2827 16.6375 15.3704 16.8202 15.5378L17.8056 16.5003C17.9889 16.6684 18.0769 16.8823 18.0696 17.142C18.0623 17.4017 17.9743 17.6232 17.8056 17.8066C17.6223 17.9899 17.4007 18.0816 17.141 18.0816C16.8813 18.0816 16.6674 17.9899 16.4994 17.8066ZM15.5369 6.46283C15.3535 6.29477 15.2655 6.08486 15.2729 5.83308C15.2802 5.5813 15.3682 5.36344 15.5369 5.1795L16.4994 4.19408C16.6674 4.01075 16.8813 3.92275 17.141 3.93008C17.4007 3.93741 17.6223 4.02541 17.8056 4.19408C17.9889 4.37741 18.0806 4.59894 18.0806 4.85866C18.0806 5.11838 17.9889 5.33227 17.8056 5.50033L16.8202 6.46283C16.6369 6.63088 16.423 6.71491 16.1785 6.71491C15.9341 6.71491 15.7202 6.63088 15.5369 6.46283ZM4.1931 17.8066C4.00977 17.6232 3.9181 17.4017 3.9181 17.142C3.9181 16.8823 4.00977 16.6684 4.1931 16.5003L5.17852 15.5378C5.36185 15.3698 5.57941 15.2857 5.83119 15.2857C6.08296 15.2857 6.29319 15.3698 6.46185 15.5378C6.64519 15.7059 6.73319 15.9161 6.72585 16.1685C6.71852 16.4209 6.63052 16.6384 6.46185 16.8212L5.49935 17.8066C5.3313 17.9899 5.11741 18.0779 4.85769 18.0706C4.59796 18.0632 4.37644 17.9752 4.1931 17.8066Z" fill="white"/>
</g>
<defs>
<clipPath id="clip0_8431_1297">
<rect width="22" height="22" fill="white"/>
</clipPath>
</defs>
</svg>
