<svg width="22" height="22" viewBox="0 0 22 22" fill="none" xmlns="http://www.w3.org/2000/svg">
<path fill-rule="evenodd" clip-rule="evenodd" d="M16.5 1.83301C17.2293 1.83301 17.9288 2.12274 18.4445 2.63846C18.9603 3.15419 19.25 3.85366 19.25 4.58301V17.4163C19.25 18.1457 18.9603 18.8452 18.4445 19.3609C17.9288 19.8766 17.2293 20.1663 16.5 20.1663H11C10.2707 20.1663 9.57118 19.8766 9.05546 19.3609C8.53973 18.8452 8.25 18.1457 8.25 17.4163V4.58301C8.25 3.85366 8.53973 3.15419 9.05546 2.63846C9.57118 2.12274 10.2707 1.83301 11 1.83301H16.5ZM7.06475 6.68492C6.89285 6.51308 6.65973 6.41654 6.41667 6.41654C6.1736 6.41654 5.94048 6.51308 5.76858 6.68492L2.10192 10.3516C1.93007 10.5235 1.83353 10.7566 1.83353 10.9997C1.83353 11.2427 1.93007 11.4759 2.10192 11.6478L5.76858 15.3144C5.94147 15.4814 6.17302 15.5738 6.41337 15.5717C6.65371 15.5696 6.88363 15.4732 7.05358 15.3033C7.22354 15.1333 7.31995 14.9034 7.32203 14.663C7.32412 14.4227 7.23173 14.1911 7.06475 14.0183L4.96283 11.9163H12.8333C13.0764 11.9163 13.3096 11.8198 13.4815 11.6479C13.6534 11.4759 13.75 11.2428 13.75 10.9997C13.75 10.7566 13.6534 10.5234 13.4815 10.3515C13.3096 10.1796 13.0764 10.083 12.8333 10.083H4.96283L7.06475 7.98109C7.2366 7.80919 7.33314 7.57608 7.33314 7.33301C7.33314 7.08994 7.2366 6.85683 7.06475 6.68492Z" fill="#B23131"/>
</svg>
