<svg width="22" height="22" viewBox="0 0 22 22" fill="none" xmlns="http://www.w3.org/2000/svg">
<path d="M15.4855 15.4004L14.6377 16.9947L18.7891 16.316C17.9513 15.8958 16.8172 15.5955 15.4855 15.4004ZM4.79133 15.748C2.86853 16.2551 1.65039 17.086 1.65039 18.3202C1.65118 18.5859 1.70926 18.8483 1.82067 19.0896L8.48337 18.0006L4.79133 15.748ZM20.1942 17.6004L10.9212 19.1118L13.3667 21.8939C17.3826 21.5342 20.3504 20.2514 20.3504 18.3202C20.3504 18.0628 20.295 17.8235 20.1942 17.6004ZM9.35435 19.3725L3.08875 20.3966C4.74491 21.4227 7.66805 22.0004 11.0004 22.0004C11.2024 22.0004 11.3997 21.9947 11.5986 21.9905L9.35435 19.3725Z" fill="white"/>
<path d="M11.0012 0C7.41516 0 4.47266 2.93304 4.47266 6.5109C4.47266 7.89734 4.9164 9.18896 5.66528 10.2474L5.64284 10.2124L9.87982 17.5364L9.89742 17.56C10.0646 17.778 10.2274 17.9498 10.419 18.0765C10.6104 18.203 10.848 18.2791 11.081 18.2558C11.547 18.2092 11.8325 17.8801 12.1034 17.5129L12.1177 17.4937L16.7894 9.54294L16.7922 9.53766C16.9018 9.33966 16.9825 9.13836 17.0512 8.94212C17.3663 8.17029 17.5284 7.34458 17.5286 6.5109C17.5288 2.93304 14.5872 0 11.0012 0ZM11.0012 0.913C14.09 0.913 16.6156 3.4331 16.6156 6.5109C16.6156 7.25164 16.4686 7.9585 16.2026 8.6075L16.1978 8.61894L16.1938 8.63038C16.1344 8.80066 16.07 8.9573 15.9934 9.0959L11.3613 16.9785C11.1475 17.2632 10.9913 17.3472 10.9899 17.3474C10.9893 17.3474 10.9869 17.3573 10.9231 17.3149C10.8612 17.2742 10.7559 17.1736 10.6331 17.0157L6.4223 9.7372L6.41064 9.72048C5.7656 8.80858 5.38566 7.7033 5.38566 6.51112C5.38566 3.43332 7.91236 0.913 11.0012 0.913ZM11.0012 2.83712C8.96264 2.83712 7.3177 4.47612 7.3177 6.5109C7.3177 8.54568 8.96264 10.1847 11.0012 10.1847C13.0395 10.1847 14.684 8.54568 14.684 6.51068C14.684 4.47612 13.0397 2.83712 11.0012 2.83712ZM11.0012 3.75012C12.5566 3.75012 13.771 4.96166 13.771 6.5109C13.771 8.06014 12.5568 9.27168 11.0012 9.27168C9.44532 9.27168 8.2307 8.05992 8.2307 6.51068C8.2307 4.96188 9.44532 3.75012 11.0012 3.75012Z" fill="white"/>
</svg>
