<svg width="9" height="9" viewBox="0 0 9 9" fill="none" xmlns="http://www.w3.org/2000/svg">
<path d="M4.33333 4.49935C3.7375 4.49935 3.22743 4.2872 2.80313 3.86289C2.37882 3.43859 2.16667 2.92852 2.16667 2.33268C2.16667 1.73685 2.37882 1.22678 2.80313 0.802474C3.22743 0.378168 3.7375 0.166016 4.33333 0.166016C4.92917 0.166016 5.43924 0.378168 5.86354 0.802474C6.28785 1.22678 6.5 1.73685 6.5 2.33268C6.5 2.92852 6.28785 3.43859 5.86354 3.86289C5.43924 4.2872 4.92917 4.49935 4.33333 4.49935ZM0 8.83268V7.31602C0 7.00907 0.0790835 6.72686 0.23725 6.46939C0.395417 6.21192 0.605222 6.01566 0.866667 5.8806C1.42639 5.60074 1.99514 5.39075 2.57292 5.25064C3.15069 5.11053 3.7375 5.04065 4.33333 5.04102C4.92917 5.04102 5.51597 5.11107 6.09375 5.25118C6.67153 5.39129 7.24028 5.6011 7.8 5.8806C8.06181 6.01602 8.27179 6.21246 8.42996 6.46993C8.58813 6.7274 8.66703 7.00943 8.66667 7.31602V8.83268H0ZM1.08333 7.74935H7.58333V7.31602C7.58333 7.21671 7.55842 7.12643 7.50858 7.04518C7.45875 6.96393 7.39339 6.90074 7.3125 6.8556C6.825 6.61185 6.33299 6.42913 5.83646 6.30743C5.33993 6.18574 4.83889 6.12471 4.33333 6.12435C3.82778 6.12435 3.32674 6.18538 2.83021 6.30743C2.33368 6.42949 1.84167 6.61221 1.35417 6.8556C1.27292 6.90074 1.20738 6.96393 1.15754 7.04518C1.10771 7.12643 1.08297 7.21671 1.08333 7.31602V7.74935ZM4.33333 3.41602C4.63125 3.41602 4.88638 3.30985 5.09871 3.09752C5.31104 2.88518 5.41703 2.63024 5.41667 2.33268C5.41667 2.03477 5.3105 1.77964 5.09817 1.56731C4.88583 1.35497 4.63089 1.24899 4.33333 1.24935C4.03542 1.24935 3.78029 1.35552 3.56796 1.56785C3.35563 1.78018 3.24964 2.03513 3.25 2.33268C3.25 2.6306 3.35617 2.88572 3.5685 3.09806C3.78083 3.31039 4.03578 3.41638 4.33333 3.41602Z" fill="white"/>
</svg>
