<svg width="13" height="13" viewBox="0 0 13 13" fill="none" xmlns="http://www.w3.org/2000/svg">
<path d="M11.375 6.5C11.375 5.53547 11.0889 4.59261 10.5528 3.79075C10.0168 2.98888 9.25497 2.36405 8.3637 1.99531C7.47244 1.62657 6.49182 1.53051 5.54594 1.71927C4.60007 1.90803 3.73144 2.37314 3.04998 3.05573C2.36853 3.73833 1.90487 4.60773 1.71769 5.55392C1.5305 6.50011 1.6282 7.48057 1.99843 8.37121C2.36865 9.26186 2.99475 10.0227 3.79751 10.5574C4.60027 11.0921 5.5436 11.3766 6.50813 11.375M1.95 4.875H11.05M1.95 8.125H7.3125" stroke="white" stroke-linecap="round" stroke-linejoin="round"/>
<path d="M6.22834 1.625C5.31581 3.08729 4.83203 4.77634 4.83203 6.5C4.83203 8.22366 5.31581 9.91271 6.22834 11.375M6.77 1.625C7.8076 3.28704 8.28769 5.23684 8.14042 7.19062M9.2075 11.375L11.3742 9.20833M8.66584 10.2917C8.66584 10.7226 8.83704 11.136 9.14179 11.4407C9.44653 11.7455 9.85986 11.9167 10.2908 11.9167C10.7218 11.9167 11.1351 11.7455 11.4399 11.4407C11.7446 11.136 11.9158 10.7226 11.9158 10.2917C11.9158 9.86069 11.7446 9.44736 11.4399 9.14262C11.1351 8.83787 10.7218 8.66667 10.2908 8.66667C9.85986 8.66667 9.44653 8.83787 9.14179 9.14262C8.83704 9.44736 8.66584 9.86069 8.66584 10.2917Z" stroke="white" stroke-linecap="round" stroke-linejoin="round"/>
</svg>
