<svg width="13" height="13" viewBox="0 0 13 13" fill="none" xmlns="http://www.w3.org/2000/svg">
<path d="M3.1486 5.60514C3.20361 5.60514 3.26497 5.61361 3.33268 5.63053C3.40039 5.64746 3.4681 5.67074 3.53581 5.70036C3.60352 5.72998 3.67122 5.75749 3.73893 5.78288C3.80664 5.80827 3.868 5.83366 3.92301 5.85905L3.82145 5.87174C3.7876 5.87598 3.75163 5.87809 3.71354 5.87809C3.6416 5.87809 3.57601 5.86751 3.51676 5.84635C3.45752 5.82519 3.40251 5.79769 3.35173 5.76383C3.30094 5.72998 3.25016 5.70459 3.19938 5.68766C3.1486 5.67074 3.10205 5.65804 3.05973 5.64958C3.01742 5.64958 2.97933 5.65804 2.94548 5.67497C2.91162 5.69189 2.87777 5.71094 2.84391 5.7321C2.84391 5.71517 2.8291 5.70671 2.79948 5.70671C2.8291 5.67708 2.88411 5.65381 2.96452 5.63688C3.04492 5.61995 3.10628 5.60937 3.1486 5.60514ZM4.00553 5.89079C4.17904 5.89079 4.33773 5.92041 4.48161 5.97965C4.42236 6.00081 4.36312 6.01774 4.30387 6.03044C4.24463 6.04313 4.18327 6.05159 4.11979 6.05583C4.03516 6.05583 3.95898 6.04736 3.89128 6.03044C3.91243 5.99658 3.93359 5.97542 3.95475 5.96696C3.97591 5.9585 3.99284 5.9331 4.00553 5.89079ZM6.50016 0.00016276C7.09684 0.00016276 7.67025 0.0784505 8.22038 0.235026C8.77051 0.391602 9.28678 0.609538 9.76921 0.888835C10.2516 1.16813 10.6917 1.50879 11.0895 1.91081C11.4873 2.31283 11.8258 2.75081 12.1051 3.22477C12.3844 3.69873 12.6045 4.21501 12.7653 4.7736C12.9261 5.33219 13.0044 5.90771 13.0002 6.50016C13.0002 7.09684 12.9219 7.67025 12.7653 8.22038C12.6087 8.77051 12.3908 9.28678 12.1115 9.76921C11.8322 10.2516 11.4915 10.6917 11.0895 11.0895C10.6875 11.4873 10.2495 11.8258 9.77555 12.1051C9.30159 12.3844 8.78532 12.6045 8.22673 12.7653C7.66813 12.9261 7.09261 13.0044 6.50016 13.0002C5.90348 13.0002 5.33008 12.9219 4.77995 12.7653C4.22982 12.6087 3.71354 12.3908 3.23112 12.1115C2.7487 11.8322 2.30859 11.4915 1.91081 11.0895C1.51302 10.6875 1.17448 10.2495 0.895182 9.77555C0.615885 9.30159 0.395833 8.78532 0.235026 8.22672C0.0742188 7.66813 -0.00406901 7.09261 0.00016276 6.50016C0.00016276 5.90348 0.0784505 5.33008 0.235026 4.77995C0.391602 4.22982 0.609538 3.71354 0.888835 3.23112C1.16813 2.7487 1.50879 2.30859 1.91081 1.91081C2.31283 1.51302 2.75081 1.17448 3.22477 0.895182C3.69873 0.615885 4.21501 0.395833 4.7736 0.235026C5.33219 0.0742188 5.90771 -0.00406901 6.50016 0.00016276ZM11.3371 3.52311C11.2778 3.43001 11.2186 3.34115 11.1593 3.25651C11.1001 3.17187 11.0387 3.08512 10.9753 2.99626C10.9668 3.03434 10.9562 3.06185 10.9435 3.07878C10.9308 3.0957 10.9224 3.13379 10.9181 3.19303C10.9181 3.23112 10.9329 3.26709 10.9626 3.30094C10.9922 3.3348 11.0303 3.36865 11.0768 3.40251C11.1234 3.43636 11.1699 3.46175 11.2165 3.47868C11.263 3.49561 11.3032 3.51042 11.3371 3.52311ZM10.8991 2.90104C10.8991 2.9349 10.8927 2.95817 10.88 2.97087H10.9181C10.9351 2.97087 10.9478 2.97298 10.9562 2.97721L10.8991 2.90104ZM6.50016 12.1877C6.98258 12.1877 7.45443 12.1263 7.91569 12.0036C8.37695 11.8809 8.81283 11.7074 9.22331 11.4831C9.63379 11.2588 10.0146 10.9837 10.3659 10.6579C10.7171 10.332 11.0239 9.9681 11.2863 9.56608C11.2313 9.43913 11.1784 9.31006 11.1276 9.17887C11.0768 9.04769 11.0514 8.91227 11.0514 8.77262C11.0514 8.62028 11.0578 8.49756 11.0705 8.40446C11.0832 8.31136 11.098 8.22884 11.1149 8.1569C11.1318 8.08496 11.1403 8.0236 11.1403 7.97282C11.1403 7.92204 11.134 7.85644 11.1213 7.77604C11.1086 7.69564 11.0726 7.60889 11.0133 7.51579C10.9541 7.42269 10.8758 7.2915 10.7785 7.12223C10.7827 7.09261 10.7891 7.05241 10.7975 7.00163C10.806 6.95085 10.8145 6.89795 10.8229 6.84294C10.8314 6.78792 10.8335 6.73714 10.8293 6.69059C10.825 6.64404 10.8145 6.60384 10.7975 6.56999C10.6875 6.55729 10.5732 6.53402 10.4548 6.50016C10.3363 6.46631 10.2305 6.41553 10.1374 6.34782L10.1755 6.31608C10.1204 6.32878 10.0654 6.3457 10.0104 6.36686C9.9554 6.38802 9.90251 6.41129 9.85173 6.43669C9.80094 6.46208 9.74593 6.479 9.68669 6.48747C9.62744 6.49593 9.57031 6.50439 9.5153 6.51286L9.41374 6.50016L9.43278 6.45573C9.37354 6.47266 9.31006 6.49381 9.24235 6.51921C9.17464 6.5446 9.10905 6.55729 9.04557 6.55729C9.00325 6.55729 8.94189 6.54248 8.86149 6.51286C8.78109 6.48324 8.70068 6.44727 8.62028 6.40495C8.53988 6.36263 8.46794 6.31608 8.40446 6.2653C8.34098 6.21452 8.30925 6.16585 8.30925 6.1193L8.32194 6.10026C8.30078 6.07487 8.27327 6.05159 8.23942 6.03044C8.20557 6.00928 8.17383 5.98812 8.14421 5.96696C8.11458 5.9458 8.08708 5.92253 8.06169 5.89713C8.0363 5.87174 8.02572 5.84212 8.02995 5.80827L8.09977 5.75114L7.95378 5.7321L7.90299 5.54167C7.91146 5.56283 7.9305 5.57129 7.96012 5.56706C7.98975 5.56283 8.01302 5.55436 8.02995 5.54167L7.80143 5.42106L7.96012 5.01481C7.90088 4.79476 7.88607 4.62549 7.91569 4.507C7.94531 4.38851 8.00244 4.29118 8.08708 4.21501C8.17171 4.13883 8.26481 4.06266 8.36637 3.98649C8.46794 3.91032 8.57161 3.80664 8.67741 3.67546L8.65837 3.59928L9.07731 3.09147L9.17253 3.07878C9.29102 3.07878 9.42432 3.07454 9.57243 3.06608C9.72054 3.05762 9.87077 3.04281 10.0231 3.02165C10.1755 3.00049 10.3257 2.97933 10.4738 2.95817C10.6219 2.93701 10.7573 2.9095 10.88 2.87565C10.7446 2.71484 10.6029 2.5625 10.4548 2.41862C10.3066 2.27474 10.1479 2.13721 9.97868 2.00602C9.93213 2.02295 9.875 2.04622 9.80729 2.07585C9.73958 2.10547 9.67188 2.14355 9.60417 2.1901C9.53646 2.23665 9.48356 2.28743 9.44548 2.34245C9.40739 2.39746 9.38411 2.45459 9.37565 2.51383L9.41374 2.63444C9.33757 2.75716 9.25293 2.83333 9.15983 2.86296C9.06673 2.89258 8.97152 2.9095 8.87419 2.91374C8.77686 2.91797 8.67529 2.91797 8.5695 2.91374C8.4637 2.9095 8.36214 2.92855 8.26481 2.97087L8.16325 2.75505L8.25846 2.38688L8.15055 2.22819L9.2487 1.88542C9.20215 1.76693 9.12598 1.67806 9.02018 1.61881C8.91439 1.55957 8.79801 1.52995 8.67106 1.52995V1.46647L9.02653 1.40934C8.63298 1.21468 8.22461 1.06657 7.80143 0.965006C7.37826 0.863444 6.9445 0.812663 6.50016 0.812663C6.132 0.812663 5.76807 0.848633 5.40837 0.920573C5.04867 0.992513 4.70166 1.09619 4.36735 1.23161C4.03304 1.36702 3.70931 1.5363 3.39616 1.73942C3.08301 1.94255 2.79736 2.17106 2.53923 2.42497C2.64925 2.42497 2.73389 2.45247 2.79313 2.50749C2.85238 2.5625 2.90739 2.62386 2.95817 2.69157C3.00895 2.75928 3.06185 2.82064 3.11686 2.87565C3.17188 2.93066 3.24593 2.96029 3.33903 2.96452L3.44059 2.88835L3.4279 2.7487L3.63737 2.45036L3.47233 1.98063C3.49349 1.96794 3.52523 1.94678 3.56755 1.91715C3.60986 1.88753 3.64583 1.87272 3.67546 1.87272C3.80241 1.87272 3.89974 1.87907 3.96745 1.89176C4.03516 1.90446 4.0944 1.92773 4.14518 1.96159C4.19596 1.99544 4.2404 2.04411 4.27848 2.10758C4.31657 2.17106 4.37581 2.25146 4.45622 2.3488L4.68473 2.17106C4.72705 2.18799 4.79476 2.21549 4.88786 2.25358C4.98096 2.29167 5.07617 2.33822 5.1735 2.39323C5.27083 2.44824 5.35335 2.50537 5.42106 2.56462C5.48877 2.62386 5.52474 2.67887 5.52897 2.72965C5.52897 2.79313 5.5057 2.84391 5.45915 2.882C5.4126 2.92008 5.35124 2.95182 5.27506 2.97721C5.19889 3.0026 5.12061 3.02165 5.0402 3.03434C4.9598 3.04704 4.87939 3.06396 4.79899 3.08512C4.71859 3.10628 4.65723 3.12744 4.61491 3.1486C4.57259 3.16976 4.5472 3.20573 4.53874 3.25651L4.9069 3.37712C4.82227 3.44906 4.73128 3.51465 4.63395 3.57389C4.53662 3.63314 4.43506 3.68815 4.32926 3.73893L4.35465 3.84684L3.77067 4.07536V4.25309L3.72624 4.27214L3.75798 4.04997L3.73258 4.04362C3.70296 4.04362 3.68604 4.04997 3.6818 4.06266C3.67757 4.07536 3.67546 4.09017 3.67546 4.1071C3.67546 4.12402 3.67969 4.14095 3.68815 4.15788C3.69661 4.1748 3.69873 4.1875 3.6945 4.19596L3.61198 4.15153L3.62467 4.17692C3.62467 4.18962 3.63102 4.20866 3.64372 4.23405C3.65641 4.25944 3.67334 4.28271 3.6945 4.30387C3.71566 4.32503 3.73258 4.34619 3.74528 4.36735C3.75798 4.38851 3.76644 4.39909 3.77067 4.39909C3.77067 4.41178 3.76221 4.42448 3.74528 4.43717C3.72835 4.44987 3.70719 4.45833 3.6818 4.46256C3.65641 4.4668 3.63949 4.47314 3.63102 4.48161C3.62256 4.49007 3.62256 4.49219 3.63102 4.48796C3.69027 4.48796 3.70296 4.49219 3.66911 4.50065C3.63525 4.50911 3.58236 4.53027 3.51042 4.56413C3.43848 4.59798 3.37288 4.64665 3.31364 4.71012C3.25439 4.7736 3.22054 4.8667 3.21208 4.98942C3.21208 5.06136 3.21419 5.13118 3.21842 5.19889C3.22266 5.2666 3.22054 5.33643 3.21208 5.40837C3.15283 5.24756 3.06396 5.12484 2.94548 5.0402C2.82699 4.95557 2.68311 4.91325 2.51383 4.91325L2.24089 4.93864L2.37419 5.02751C2.30225 5.01904 2.22819 5.01058 2.15202 5.00212C2.07585 4.99365 1.99756 4.99154 1.91715 4.99577C1.83675 5 1.76481 5.01693 1.70133 5.04655C1.63786 5.07617 1.57438 5.1206 1.5109 5.17985L1.47282 5.46549C1.47282 5.60091 1.50244 5.71094 1.56169 5.79557C1.62093 5.88021 1.72461 5.92464 1.87272 5.92887C1.99967 5.92887 2.12451 5.90983 2.24723 5.87174C2.36995 5.83366 2.49056 5.78922 2.60905 5.73844C2.57096 5.83154 2.52865 5.92041 2.4821 6.00504C2.43555 6.08968 2.40169 6.18278 2.38053 6.28434L2.46305 6.32243C2.56462 6.25472 2.65771 6.24414 2.74235 6.29069C2.82699 6.33724 2.90951 6.40495 2.98991 6.49381C3.07031 6.58268 3.15283 6.67367 3.23747 6.76676C3.3221 6.85986 3.41309 6.92757 3.51042 6.96989L3.2946 7.08415L2.78678 6.7985C2.79102 6.80697 2.79525 6.82601 2.79948 6.85563C2.80371 6.88525 2.80159 6.8916 2.79313 6.87467L2.56462 6.48747C2.4292 6.48324 2.28532 6.46208 2.13298 6.42399C1.98063 6.3859 1.82617 6.33512 1.6696 6.27165C1.51302 6.20817 1.36702 6.13835 1.23161 6.06217C1.09619 5.986 0.971354 5.9056 0.857096 5.82096L0.812663 6.50016C0.812663 7.01644 0.882487 7.52002 1.02214 8.0109C1.16178 8.50179 1.35856 8.96305 1.61247 9.39469C1.86637 9.82633 2.17741 10.2199 2.54557 10.5754C2.91374 10.9308 3.3221 11.2334 3.77067 11.4831C3.74951 11.3942 3.7474 11.3053 3.76432 11.2165C3.78125 11.1276 3.80241 11.0387 3.8278 10.9499C3.85319 10.861 3.8807 10.7721 3.91032 10.6833C3.93994 10.5944 3.95475 10.5034 3.95475 10.4103C3.95475 10.2749 3.93359 10.1331 3.89128 9.98503C3.84896 9.83691 3.79818 9.68669 3.73893 9.53434C3.67969 9.382 3.61409 9.23177 3.54215 9.08366C3.47021 8.93555 3.41309 8.7959 3.37077 8.66471C3.32845 8.53353 3.2946 8.41081 3.26921 8.29655C3.24381 8.18229 3.25651 8.08284 3.30729 7.99821L3.21208 7.95378C3.23747 7.89453 3.27132 7.8374 3.31364 7.78239C3.35596 7.72738 3.40039 7.67236 3.44694 7.61735C3.49349 7.56234 3.52946 7.50309 3.55485 7.43962C3.58024 7.37614 3.59505 7.31266 3.59928 7.24919C3.59928 7.20687 3.59082 7.16243 3.57389 7.11588C3.55697 7.06934 3.54215 7.0249 3.52946 6.98258L3.66276 7.01432C3.7347 6.84928 3.83203 6.73714 3.95475 6.6779C4.07747 6.61865 4.23193 6.58691 4.41813 6.58268C4.43929 6.58268 4.48372 6.59115 4.55143 6.60807C4.61914 6.625 4.69108 6.64827 4.76725 6.6779C4.84342 6.70752 4.91536 6.73079 4.98307 6.74772C5.05078 6.76465 5.10156 6.78158 5.13542 6.7985C5.13542 6.82812 5.15234 6.84717 5.1862 6.85563C5.22005 6.86409 5.2391 6.87891 5.24333 6.90006L5.23063 6.95085C5.24333 6.95508 5.27295 6.96989 5.3195 6.99528C5.36605 7.02067 5.41683 7.05241 5.47184 7.09049C5.52686 7.12858 5.57552 7.16243 5.61784 7.19206C5.66016 7.22168 5.68978 7.24495 5.70671 7.26188C5.78288 7.26188 5.88656 7.28727 6.01774 7.33805C6.14893 7.38883 6.29281 7.45231 6.44938 7.52848C6.60596 7.60465 6.76042 7.69564 6.91276 7.80143C7.0651 7.90723 7.20898 8.01302 7.3444 8.11881C7.47982 8.22461 7.5835 8.3304 7.65544 8.4362C7.72738 8.54199 7.76969 8.63509 7.78239 8.71549L7.56657 8.94401C7.5835 9.15983 7.56869 9.32487 7.52214 9.43913C7.47559 9.55338 7.40365 9.6486 7.30631 9.72477C7.20898 9.80094 7.09684 9.86442 6.96989 9.9152C6.84294 9.96598 6.7054 10.0379 6.55729 10.131C6.55729 10.2157 6.53613 10.3066 6.49381 10.404C6.4515 10.5013 6.3986 10.5944 6.33512 10.6833C6.27165 10.7721 6.19548 10.8462 6.10661 10.9054C6.01774 10.9647 5.92887 10.9943 5.84001 10.9943L5.5734 10.7912C5.58187 10.7996 5.58187 10.8145 5.5734 10.8356C5.56494 10.8568 5.55436 10.861 5.54167 10.8483C5.58398 10.9287 5.59456 11.0218 5.5734 11.1276C5.55225 11.2334 5.51628 11.3413 5.46549 11.4513C5.41471 11.5614 5.35758 11.665 5.29411 11.7624C5.23063 11.8597 5.1735 11.9422 5.12272 12.0099C5.35124 12.0692 5.57975 12.1136 5.80827 12.1432C6.03678 12.1729 6.26742 12.1877 6.50016 12.1877Z" fill="white"/>
</svg>
