<svg width="13" height="13" viewBox="0 0 13 13" fill="none" xmlns="http://www.w3.org/2000/svg">
<path d="M4.87565 7.44857C3.60815 7.44857 1.08398 8.08232 1.08398 9.3444V10.2923H8.66732V9.3444C8.66732 8.08232 6.14315 7.44857 4.87565 7.44857ZM2.35148 9.20898C2.80648 8.89482 3.90607 8.5319 4.87565 8.5319C5.84523 8.5319 6.94482 8.89482 7.39982 9.20898H2.35148ZM4.87565 6.50065C5.92107 6.50065 6.77148 5.65023 6.77148 4.60482C6.77148 3.5594 5.92107 2.70898 4.87565 2.70898C3.83023 2.70898 2.97982 3.5594 2.97982 4.60482C2.97982 5.65023 3.83023 6.50065 4.87565 6.50065ZM4.87565 3.79232C5.32523 3.79232 5.68815 4.15523 5.68815 4.60482C5.68815 5.0544 5.32523 5.41732 4.87565 5.41732C4.42607 5.41732 4.06315 5.0544 4.06315 4.60482C4.06315 4.15523 4.42607 3.79232 4.87565 3.79232ZM8.68898 7.48107C9.31732 7.93607 9.75065 8.54273 9.75065 9.3444V10.2923H11.9173V9.3444C11.9173 8.25023 10.0215 7.62732 8.68898 7.48107ZM8.12565 6.50065C9.17107 6.50065 10.0215 5.65023 10.0215 4.60482C10.0215 3.5594 9.17107 2.70898 8.12565 2.70898C7.83315 2.70898 7.56232 2.7794 7.31315 2.89857C7.6544 3.38065 7.85482 3.97107 7.85482 4.60482C7.85482 5.23857 7.6544 5.82898 7.31315 6.31107C7.56232 6.43023 7.83315 6.50065 8.12565 6.50065Z" fill="white"/>
</svg>
