<svg width="9" height="11" viewBox="0 0 9 11" fill="none" xmlns="http://www.w3.org/2000/svg">
<path d="M4.33333 6.04232C4.16842 6.04039 4.00688 6.08903 3.87045 6.18169C3.73402 6.27435 3.62925 6.40658 3.57024 6.56059C3.51123 6.71459 3.50083 6.88298 3.54041 7.04308C3.58 7.20318 3.66769 7.34731 3.79167 7.45607V8.20898C3.79167 8.35264 3.84874 8.49042 3.95032 8.592C4.0519 8.69358 4.18967 8.75065 4.33333 8.75065C4.47699 8.75065 4.61477 8.69358 4.71635 8.592C4.81793 8.49042 4.875 8.35264 4.875 8.20898V7.45607C4.99898 7.34731 5.08667 7.20318 5.12625 7.04308C5.16584 6.88298 5.15543 6.71459 5.09643 6.56059C5.03742 6.40658 4.93265 6.27435 4.79622 6.18169C4.65979 6.08903 4.49824 6.04039 4.33333 6.04232ZM7.04167 3.87565V2.79232C7.04167 2.07402 6.75633 1.38515 6.24841 0.877237C5.7405 0.369326 5.05163 0.0839844 4.33333 0.0839844C3.61504 0.0839844 2.92616 0.369326 2.41825 0.877237C1.91034 1.38515 1.625 2.07402 1.625 2.79232V3.87565C1.19402 3.87565 0.780698 4.04686 0.475952 4.3516C0.171205 4.65635 0 5.06967 0 5.50065V9.29232C0 9.72329 0.171205 10.1366 0.475952 10.4414C0.780698 10.7461 1.19402 10.9173 1.625 10.9173H7.04167C7.47264 10.9173 7.88597 10.7461 8.19072 10.4414C8.49546 10.1366 8.66667 9.72329 8.66667 9.29232V5.50065C8.66667 5.06967 8.49546 4.65635 8.19072 4.3516C7.88597 4.04686 7.47264 3.87565 7.04167 3.87565ZM2.70833 2.79232C2.70833 2.36134 2.87954 1.94802 3.18428 1.64327C3.48903 1.33852 3.90236 1.16732 4.33333 1.16732C4.76431 1.16732 5.17764 1.33852 5.48238 1.64327C5.78713 1.94802 5.95833 2.36134 5.95833 2.79232V3.87565H2.70833V2.79232ZM7.58333 9.29232C7.58333 9.43598 7.52627 9.57375 7.42468 9.67533C7.3231 9.77692 7.18533 9.83398 7.04167 9.83398H1.625C1.48134 9.83398 1.34357 9.77692 1.24198 9.67533C1.1404 9.57375 1.08333 9.43598 1.08333 9.29232V5.50065C1.08333 5.35699 1.1404 5.21922 1.24198 5.11763C1.34357 5.01605 1.48134 4.95898 1.625 4.95898H7.04167C7.18533 4.95898 7.3231 5.01605 7.42468 5.11763C7.52627 5.21922 7.58333 5.35699 7.58333 5.50065V9.29232Z" fill="white"/>
</svg>
