<svg width="22" height="22" viewBox="0 0 22 22" fill="none" xmlns="http://www.w3.org/2000/svg">
<path d="M8.24935 4.58363C8.00623 4.58363 7.77308 4.6802 7.60117 4.85211C7.42926 5.02402 7.33268 5.25718 7.33268 5.50029C7.33268 5.74341 7.42926 5.97657 7.60117 6.14847C7.77308 6.32038 8.00623 6.41696 8.24935 6.41696C8.49246 6.41696 8.72562 6.32038 8.89753 6.14847C9.06944 5.97657 9.16602 5.74341 9.16602 5.50029C9.16602 5.25718 9.06944 5.02402 8.89753 4.85211C8.72562 4.6802 8.49246 4.58363 8.24935 4.58363ZM5.65518 4.58363C5.84457 4.04689 6.19578 3.58211 6.6604 3.25335C7.12502 2.92459 7.68018 2.74805 8.24935 2.74805C8.81852 2.74805 9.37368 2.92459 9.8383 3.25335C10.3029 3.58211 10.6541 4.04689 10.8435 4.58363H17.416C17.6591 4.58363 17.8923 4.6802 18.0642 4.85211C18.2361 5.02402 18.3327 5.25718 18.3327 5.50029C18.3327 5.74341 18.2361 5.97657 18.0642 6.14847C17.8923 6.32038 17.6591 6.41696 17.416 6.41696H10.8435C10.6541 6.9537 10.3029 7.41848 9.8383 7.74724C9.37368 8.07599 8.81852 8.25254 8.24935 8.25254C7.68018 8.25254 7.12502 8.07599 6.6604 7.74724C6.19578 7.41848 5.84457 6.9537 5.65518 6.41696H4.58268C4.33957 6.41696 4.10641 6.32038 3.9345 6.14847C3.76259 5.97657 3.66602 5.74341 3.66602 5.50029C3.66602 5.25718 3.76259 5.02402 3.9345 4.85211C4.10641 4.6802 4.33957 4.58363 4.58268 4.58363H5.65518ZM13.7493 10.0836C13.5062 10.0836 13.2731 10.1802 13.1012 10.3521C12.9293 10.524 12.8327 10.7572 12.8327 11.0003C12.8327 11.2434 12.9293 11.4766 13.1012 11.6485C13.2731 11.8204 13.5062 11.917 13.7493 11.917C13.9925 11.917 14.2256 11.8204 14.3975 11.6485C14.5694 11.4766 14.666 11.2434 14.666 11.0003C14.666 10.7572 14.5694 10.524 14.3975 10.3521C14.2256 10.1802 13.9925 10.0836 13.7493 10.0836ZM11.1552 10.0836C11.3446 9.54689 11.6958 9.08211 12.1604 8.75335C12.625 8.42459 13.1802 8.24805 13.7493 8.24805C14.3185 8.24805 14.8737 8.42459 15.3383 8.75335C15.8029 9.08211 16.1541 9.54689 16.3435 10.0836H17.416C17.6591 10.0836 17.8923 10.1802 18.0642 10.3521C18.2361 10.524 18.3327 10.7572 18.3327 11.0003C18.3327 11.2434 18.2361 11.4766 18.0642 11.6485C17.8923 11.8204 17.6591 11.917 17.416 11.917H16.3435C16.1541 12.4537 15.8029 12.9185 15.3383 13.2472C14.8737 13.576 14.3185 13.7525 13.7493 13.7525C13.1802 13.7525 12.625 13.576 12.1604 13.2472C11.6958 12.9185 11.3446 12.4537 11.1552 11.917H4.58268C4.33957 11.917 4.10641 11.8204 3.9345 11.6485C3.76259 11.4766 3.66602 11.2434 3.66602 11.0003C3.66602 10.7572 3.76259 10.524 3.9345 10.3521C4.10641 10.1802 4.33957 10.0836 4.58268 10.0836H11.1552ZM8.24935 15.5836C8.00623 15.5836 7.77308 15.6802 7.60117 15.8521C7.42926 16.024 7.33268 16.2572 7.33268 16.5003C7.33268 16.7434 7.42926 16.9766 7.60117 17.1485C7.77308 17.3204 8.00623 17.417 8.24935 17.417C8.49246 17.417 8.72562 17.3204 8.89753 17.1485C9.06944 16.9766 9.16602 16.7434 9.16602 16.5003C9.16602 16.2572 9.06944 16.024 8.89753 15.8521C8.72562 15.6802 8.49246 15.5836 8.24935 15.5836ZM5.65518 15.5836C5.84457 15.0469 6.19578 14.5821 6.6604 14.2533C7.12502 13.9246 7.68018 13.748 8.24935 13.748C8.81852 13.748 9.37368 13.9246 9.8383 14.2533C10.3029 14.5821 10.6541 15.0469 10.8435 15.5836H17.416C17.6591 15.5836 17.8923 15.6802 18.0642 15.8521C18.2361 16.024 18.3327 16.2572 18.3327 16.5003C18.3327 16.7434 18.2361 16.9766 18.0642 17.1485C17.8923 17.3204 17.6591 17.417 17.416 17.417H10.8435C10.6541 17.9537 10.3029 18.4185 9.8383 18.7472C9.37368 19.076 8.81852 19.2525 8.24935 19.2525C7.68018 19.2525 7.12502 19.076 6.6604 18.7472C6.19578 18.4185 5.84457 17.9537 5.65518 17.417H4.58268C4.33957 17.417 4.10641 17.3204 3.9345 17.1485C3.76259 16.9766 3.66602 16.7434 3.66602 16.5003C3.66602 16.2572 3.76259 16.024 3.9345 15.8521C4.10641 15.6802 4.33957 15.5836 4.58268 15.5836H5.65518Z" fill="white"/>
</svg>
