<svg width="22" height="22" viewBox="0 0 22 22" fill="none" xmlns="http://www.w3.org/2000/svg">
<path d="M13.1013 2.10237C13.2732 1.93052 13.5063 1.83398 13.7493 1.83398C13.9924 1.83398 14.2255 1.93052 14.3974 2.10237L18.0641 5.76904C18.2359 5.94094 18.3325 6.17405 18.3325 6.41712C18.3325 6.66019 18.2359 6.8933 18.0641 7.06521L14.3974 10.7319C14.2245 10.8988 13.993 10.9912 13.7526 10.9892C13.5123 10.9871 13.2824 10.8907 13.1124 10.7207C12.9425 10.5507 12.8461 10.3208 12.844 10.0805C12.8419 9.84014 12.9343 9.60859 13.1013 9.43571L15.2032 7.33379H4.58268C4.33957 7.33379 4.10641 7.23721 3.9345 7.0653C3.76259 6.89339 3.66602 6.66024 3.66602 6.41712C3.66602 6.17401 3.76259 5.94085 3.9345 5.76894C4.10641 5.59703 4.33957 5.50046 4.58268 5.50046H15.2032L13.1013 3.39854C12.9294 3.22664 12.8329 2.99352 12.8329 2.75046C12.8329 2.50739 12.9294 2.27427 13.1013 2.10237ZM8.89743 11.269C9.06928 11.4409 9.16582 11.6741 9.16582 11.9171C9.16582 12.1602 9.06928 12.3933 8.89743 12.5652L6.79552 14.6671H17.416C17.6591 14.6671 17.8923 14.7637 18.0642 14.9356C18.2361 15.1075 18.3327 15.3407 18.3327 15.5838C18.3327 15.8269 18.2361 16.0601 18.0642 16.232C17.8923 16.4039 17.6591 16.5005 17.416 16.5005H6.79552L8.89743 18.6024C9.06441 18.7753 9.15681 19.0068 9.15472 19.2472C9.15263 19.4875 9.05622 19.7174 8.88627 19.8874C8.71631 20.0573 8.4864 20.1537 8.24605 20.1558C8.0057 20.1579 7.77415 20.0655 7.60127 19.8985L3.9346 16.2319C3.76275 16.06 3.66621 15.8269 3.66621 15.5838C3.66621 15.3407 3.76275 15.1076 3.9346 14.9357L7.60127 11.269C7.77317 11.0972 8.00628 11.0007 8.24935 11.0007C8.49242 11.0007 8.72553 11.0972 8.89743 11.269Z" fill="white"/>
</svg>
