<svg width="22" height="22" viewBox="0 0 22 22" fill="none" xmlns="http://www.w3.org/2000/svg">
<path d="M11.0005 2.29199C12.0786 2.29166 13.1284 2.63693 13.9959 3.27711C14.8633 3.91729 15.5027 4.81867 15.8202 5.84895C16.1377 6.87924 16.1165 7.98416 15.7599 9.00155C15.4032 10.0189 14.7298 10.8952 13.8385 11.5017C15.3856 12.0692 16.7274 13.0866 17.6912 14.4231C18.6551 15.7596 19.1969 17.354 19.2469 19.001C19.2516 19.0924 19.2379 19.1838 19.2068 19.2699C19.1757 19.356 19.1276 19.435 19.0656 19.5023C19.0035 19.5696 18.9286 19.6238 18.8453 19.6617C18.762 19.6997 18.672 19.7206 18.5805 19.7233C18.4889 19.726 18.3978 19.7104 18.3124 19.6774C18.2271 19.6444 18.1491 19.5947 18.0832 19.5311C18.0173 19.4676 17.9647 19.3916 17.9286 19.3075C17.8925 19.2233 17.8735 19.1329 17.8728 19.0413C17.8182 17.2552 17.0703 15.5604 15.7875 14.3163C14.5048 13.0721 12.788 12.3763 11.001 12.3763C9.21401 12.3763 7.49723 13.0721 6.21447 14.3163C4.93172 15.5604 4.1838 17.2552 4.12922 19.0413C4.12375 19.2237 4.04607 19.3964 3.91327 19.5214C3.78047 19.6465 3.60343 19.7137 3.42109 19.7082C3.23875 19.7027 3.06606 19.625 2.941 19.4923C2.81593 19.3595 2.74875 19.1824 2.75422 19.0001C2.8044 17.3532 3.34629 15.759 4.31013 14.4227C5.27397 13.0864 6.61567 12.0691 8.16255 11.5017C7.27126 10.8952 6.59787 10.0189 6.24122 9.00155C5.88456 7.98416 5.86342 6.87924 6.18091 5.84895C6.49839 4.81867 7.13778 3.91729 8.00521 3.27711C8.87265 2.63693 9.92246 2.29166 11.0005 2.29199ZM7.33388 7.33366C7.33388 8.30612 7.72019 9.23875 8.40782 9.92638C9.09546 10.614 10.0281 11.0003 11.0005 11.0003C11.973 11.0003 12.9056 10.614 13.5933 9.92638C14.2809 9.23875 14.6672 8.30612 14.6672 7.33366C14.6672 6.3612 14.2809 5.42857 13.5933 4.74093C12.9056 4.0533 11.973 3.66699 11.0005 3.66699C10.0281 3.66699 9.09546 4.0533 8.40782 4.74093C7.72019 5.42857 7.33388 6.3612 7.33388 7.33366Z" fill="white"/>
</svg>
