<svg width="35" height="35" viewBox="0 0 35 35" fill="none" xmlns="http://www.w3.org/2000/svg">
<path d="M13.854 22.7262V12.2729C13.8542 12.1421 13.8896 12.0138 13.9565 11.9014C14.0233 11.7889 14.1192 11.6966 14.234 11.634C14.3488 11.5713 14.4784 11.5407 14.6091 11.5454C14.7398 11.55 14.8668 11.5897 14.9769 11.6604L23.1086 16.8856C23.2116 16.9516 23.2963 17.0424 23.3549 17.1496C23.4136 17.2569 23.4444 17.3773 23.4444 17.4995C23.4444 17.6218 23.4136 17.7421 23.3549 17.8494C23.2963 17.9567 23.2116 18.0475 23.1086 18.1135L14.9769 23.3402C14.8668 23.4108 14.7398 23.4505 14.6091 23.4552C14.4784 23.4598 14.3488 23.4292 14.234 23.3666C14.1192 23.304 14.0233 23.2116 13.9565 23.0992C13.8896 22.9868 13.8542 22.8585 13.854 22.7277V22.7262Z" fill="#6C6C6C"/>
<path d="M1.4585 17.4997C1.4585 8.6403 8.64079 1.45801 17.5002 1.45801C26.3595 1.45801 33.5418 8.6403 33.5418 17.4997C33.5418 26.3591 26.3595 33.5413 17.5002 33.5413C8.64079 33.5413 1.4585 26.3591 1.4585 17.4997ZM17.5002 3.64551C13.8258 3.64551 10.3019 5.10514 7.70379 7.7033C5.10563 10.3015 3.646 13.8253 3.646 17.4997C3.646 21.174 5.10563 24.6979 7.70379 27.2961C10.3019 29.8942 13.8258 31.3538 17.5002 31.3538C21.1745 31.3538 24.6984 29.8942 27.2965 27.2961C29.8947 24.6979 31.3543 21.174 31.3543 17.4997C31.3543 13.8253 29.8947 10.3015 27.2965 7.7033C24.6984 5.10514 21.1745 3.64551 17.5002 3.64551Z" fill="#6C6C6C"/>
</svg>
