<svg width="8" height="9" viewBox="0 0 8 9" fill="none" xmlns="http://www.w3.org/2000/svg">
<path d="M3.67993 0.0527344C3.2273 0.0527344 2.7932 0.232543 2.47314 0.552605C2.15308 0.872668 1.97327 1.30676 1.97327 1.7594C1.97327 2.21204 2.15308 2.64613 2.47314 2.9662C2.7932 3.28626 3.2273 3.46607 3.67993 3.46607C4.13257 3.46607 4.56667 3.28626 4.88673 2.9662C5.20679 2.64613 5.3866 2.21204 5.3866 1.7594C5.3866 1.30676 5.20679 0.872668 4.88673 0.552605C4.56667 0.232543 4.13257 0.0527344 3.67993 0.0527344ZM2.8266 1.7594C2.8266 1.53308 2.91651 1.31603 3.07654 1.156C3.23657 0.995972 3.45362 0.906068 3.67993 0.906068C3.90625 0.906068 4.1233 0.995972 4.28333 1.156C4.44336 1.31603 4.53327 1.53308 4.53327 1.7594C4.53327 1.98572 4.44336 2.20277 4.28333 2.3628C4.1233 2.52283 3.90625 2.61273 3.67993 2.61273C3.45362 2.61273 3.23657 2.52283 3.07654 2.3628C2.91651 2.20277 2.8266 1.98572 2.8266 1.7594ZM5.81327 4.3194H1.5466C1.20712 4.3194 0.881552 4.45426 0.641505 4.6943C0.401458 4.93435 0.266602 5.25992 0.266602 5.5994C0.266602 6.55172 0.658281 7.3146 1.30084 7.83087C1.93316 8.3386 2.78137 8.58607 3.67993 8.58607C4.5785 8.58607 5.42671 8.3386 6.05903 7.83087C6.70074 7.3146 7.09327 6.55172 7.09327 5.5994C7.09327 5.25992 6.95841 4.93435 6.71837 4.6943C6.47832 4.45426 6.15275 4.3194 5.81327 4.3194ZM1.5466 5.17273H5.81327C5.92643 5.17273 6.03495 5.21769 6.11497 5.2977C6.19498 5.37772 6.23993 5.48624 6.23993 5.5994C6.23993 6.29657 5.9626 6.81369 5.52484 7.16527C5.07599 7.52537 4.43087 7.73273 3.67993 7.73273C2.929 7.73273 2.28388 7.52537 1.83503 7.16527C1.39727 6.81369 1.11993 6.29657 1.11993 5.5994C1.11993 5.48624 1.16489 5.37772 1.2449 5.2977C1.32492 5.21769 1.43344 5.17273 1.5466 5.17273Z" fill="#D4D4D4"/>
</svg>
