<svg width="15" height="16" viewBox="0 0 15 16" fill="none" xmlns="http://www.w3.org/2000/svg">
<path d="M12.0071 3.227C12.5991 3.8538 13.0686 4.59791 13.389 5.41687C13.7094 6.23582 13.8743 7.11357 13.8743 8C13.8743 8.88643 13.7094 9.76418 13.389 10.5831C13.0686 11.4021 12.5991 12.1462 12.0071 12.773M12.0071 12.773L10.0032 10.6512M12.0071 12.773L13.8742 14.75M10.0039 5.348C10.3329 5.69623 10.5938 6.10967 10.7719 6.56471C10.9499 7.01974 11.0416 7.50746 11.0416 8C11.0416 8.49254 10.9499 8.98026 10.7719 9.43529C10.5938 9.89033 10.3329 10.3038 10.0039 10.652L8.00003 8.53025M8.00003 8.53025C8.06768 8.46106 8.12164 8.37831 8.15877 8.2868C8.19589 8.1953 8.21543 8.09689 8.21625 7.9973C8.21706 7.89772 8.19914 7.79896 8.16353 7.70678C8.12791 7.61461 8.07531 7.53087 8.00881 7.46045C7.9423 7.39003 7.86321 7.33434 7.77616 7.29663C7.68911 7.25892 7.59584 7.23995 7.50179 7.24081C7.40773 7.24168 7.31479 7.26237 7.22837 7.30167C7.14195 7.34098 7.06379 7.39812 6.99844 7.46975M8.00003 8.53025L6.99844 7.46975M4.99457 10.652C4.45162 10.0786 4.09999 9.33349 3.99299 8.5295M2.9914 12.773C2.15147 11.8841 1.56272 10.7645 1.29152 9.54033C1.02031 8.31617 1.07744 7.03613 1.45644 5.8445M6.99844 7.46975L1.12424 1.25" stroke="white" stroke-width="1.5" stroke-linecap="round" stroke-linejoin="round"/>
</svg>
