<svg width="17" height="16" viewBox="0 0 17 16" fill="none" xmlns="http://www.w3.org/2000/svg">
<path d="M7.96875 10H4.78125C4.35856 10 3.95318 10.158 3.6543 10.4393C3.35541 10.7206 3.1875 11.1022 3.1875 11.5V12.5H4.25V11.5C4.25 11.3674 4.30597 11.2402 4.4056 11.1464C4.50523 11.0527 4.64035 11 4.78125 11H7.96875C8.10965 11 8.24477 11.0527 8.3444 11.1464C8.44403 11.2402 8.5 11.3674 8.5 11.5V12.5H9.5625V11.5C9.5625 11.1022 9.39459 10.7206 9.0957 10.4393C8.79682 10.158 8.39144 10 7.96875 10ZM6.375 9.5C6.79529 9.5 7.20613 9.3827 7.55559 9.16294C7.90504 8.94318 8.17741 8.63082 8.33824 8.26537C8.49908 7.89992 8.54116 7.49778 8.45917 7.10982C8.37718 6.72186 8.17479 6.36549 7.8776 6.08579C7.58042 5.80608 7.20178 5.6156 6.78957 5.53843C6.37736 5.46126 5.95009 5.50087 5.5618 5.65224C5.1735 5.80362 4.84163 6.05996 4.60813 6.38886C4.37463 6.71776 4.25 7.10444 4.25 7.5C4.25 8.03043 4.47388 8.53914 4.8724 8.91421C5.27091 9.28929 5.81141 9.5 6.375 9.5ZM6.375 6.5C6.58514 6.5 6.79057 6.55865 6.96529 6.66853C7.14002 6.77841 7.2762 6.93459 7.35662 7.11732C7.43704 7.30004 7.45808 7.50111 7.41708 7.69509C7.37609 7.88907 7.27489 8.06726 7.1263 8.20711C6.97771 8.34696 6.78839 8.4422 6.58228 8.48079C6.37618 8.51937 6.16255 8.49957 5.9684 8.42388C5.77425 8.34819 5.60831 8.22002 5.49156 8.05557C5.37481 7.89112 5.3125 7.69778 5.3125 7.5C5.3125 7.23478 5.42444 6.98043 5.6237 6.79289C5.82296 6.60536 6.09321 6.5 6.375 6.5Z" fill="white"/>
<path d="M14.875 9.5V14H2.125V4H8.5V3H2.125C1.84321 3 1.57296 3.10536 1.3737 3.29289C1.17444 3.48043 1.0625 3.73478 1.0625 4V14C1.0625 14.2652 1.17444 14.5196 1.3737 14.7071C1.57296 14.8946 1.84321 15 2.125 15H14.875C15.1568 15 15.427 14.8946 15.6263 14.7071C15.8256 14.5196 15.9375 14.2652 15.9375 14V9.5H14.875Z" fill="white"/>
<path d="M10.625 9.5H13.8125V10.5H10.625V9.5ZM11.6875 11.5H13.8125V12.5H11.6875V11.5ZM17 5V4H15.8838C15.8153 3.68701 15.6833 3.3894 15.495 3.1235L16.2865 2.3785L15.5353 1.6715L14.7438 2.4165C14.4613 2.23926 14.1451 2.11498 13.8125 2.0505V1H12.75V2.0505C12.4174 2.11498 12.1012 2.23926 11.8187 2.4165L11.0272 1.6715L10.276 2.3785L11.0675 3.1235C10.8792 3.3894 10.7472 3.68701 10.6787 4H9.5625V5H10.6787C10.7472 5.31299 10.8792 5.6106 11.0675 5.8765L10.276 6.6215L11.0272 7.3285L11.8187 6.5835C12.1012 6.76074 12.4174 6.88502 12.75 6.9495V8H13.8125V6.9495C14.1451 6.88502 14.4613 6.76074 14.7438 6.5835L15.5353 7.3285L16.2865 6.6215L15.495 5.8765C15.6833 5.6106 15.8153 5.31299 15.8838 5H17ZM13.2812 6C12.966 6 12.6579 5.91203 12.3958 5.7472C12.1337 5.58238 11.9294 5.34811 11.8088 5.07403C11.6882 4.79994 11.6566 4.49834 11.7181 4.20736C11.7796 3.91639 11.9314 3.64912 12.1543 3.43934C12.3772 3.22956 12.6612 3.0867 12.9703 3.02882C13.2795 2.97094 13.5999 3.00065 13.8912 3.11418C14.1824 3.22771 14.4313 3.41997 14.6064 3.66664C14.7815 3.91332 14.875 4.20333 14.875 4.5C14.8746 4.8977 14.7065 5.279 14.4077 5.56022C14.1089 5.84144 13.7038 5.9996 13.2812 6Z" fill="white"/>
</svg>
