<svg width="17" height="17" viewBox="0 0 17 17" fill="none" xmlns="http://www.w3.org/2000/svg">
<path d="M10.5237 12.0998C11.8434 11.9435 13.1402 11.632 14.3869 11.1718C13.3311 10.0022 12.7476 8.48194 12.75 6.90625V6.375C12.75 5.24783 12.3022 4.16683 11.5052 3.3698C10.7081 2.57277 9.62714 2.125 8.49997 2.125C7.3728 2.125 6.2918 2.57277 5.49477 3.3698C4.69774 4.16683 4.24997 5.24783 4.24997 6.375V6.90625C4.25211 8.48203 3.66842 10.0023 2.6123 11.1718C3.83985 11.6252 5.13397 11.9404 6.47626 12.0998M10.5237 12.0998C9.17925 12.2592 7.82069 12.2592 6.47626 12.0998M10.5237 12.0998C10.6258 12.4184 10.6511 12.7567 10.5978 13.087C10.5444 13.4173 10.4138 13.7303 10.2165 14.0006C10.0193 14.2709 9.76102 14.4908 9.46273 14.6424C9.16444 14.794 8.83457 14.873 8.49997 14.873C8.16537 14.873 7.8355 14.794 7.53721 14.6424C7.23892 14.4908 6.98065 14.2709 6.78341 14.0006C6.58618 13.7303 6.45555 13.4173 6.40218 13.087C6.34881 12.7567 6.37419 12.4184 6.47626 12.0998" stroke="white" stroke-width="1.5" stroke-linecap="round" stroke-linejoin="round"/>
</svg>
