<svg width="25" height="25" viewBox="0 0 25 25" fill="none" xmlns="http://www.w3.org/2000/svg">
<circle cx="12.5" cy="12.5" r="12.5" fill="#717171"/>
<path d="M11.9688 14H8.78125C8.35856 14 7.95318 14.158 7.6543 14.4393C7.35541 14.7206 7.1875 15.1022 7.1875 15.5V16.5H8.25V15.5C8.25 15.3674 8.30597 15.2402 8.4056 15.1464C8.50523 15.0527 8.64035 15 8.78125 15H11.9688C12.1096 15 12.2448 15.0527 12.3444 15.1464C12.444 15.2402 12.5 15.3674 12.5 15.5V16.5H13.5625V15.5C13.5625 15.1022 13.3946 14.7206 13.0957 14.4393C12.7968 14.158 12.3914 14 11.9688 14ZM10.375 13.5C10.7953 13.5 11.2061 13.3827 11.5556 13.1629C11.905 12.9432 12.1774 12.6308 12.3382 12.2654C12.4991 11.8999 12.5412 11.4978 12.4592 11.1098C12.3772 10.7219 12.1748 10.3655 11.8776 10.0858C11.5804 9.80608 11.2018 9.6156 10.7896 9.53843C10.3774 9.46126 9.95009 9.50087 9.5618 9.65224C9.1735 9.80362 8.84163 10.06 8.60813 10.3889C8.37463 10.7178 8.25 11.1044 8.25 11.5C8.25 12.0304 8.47388 12.5391 8.8724 12.9142C9.27091 13.2893 9.81141 13.5 10.375 13.5ZM10.375 10.5C10.5851 10.5 10.7906 10.5587 10.9653 10.6685C11.14 10.7784 11.2762 10.9346 11.3566 11.1173C11.437 11.3 11.4581 11.5011 11.4171 11.6951C11.3761 11.8891 11.2749 12.0673 11.1263 12.2071C10.9777 12.347 10.7884 12.4422 10.5823 12.4808C10.3762 12.5194 10.1625 12.4996 9.9684 12.4239C9.77425 12.3482 9.60831 12.22 9.49156 12.0556C9.37481 11.8911 9.3125 11.6978 9.3125 11.5C9.3125 11.2348 9.42444 10.9804 9.6237 10.7929C9.82296 10.6054 10.0932 10.5 10.375 10.5Z" fill="#A9A9A9"/>
<path d="M18.875 13.5V18H6.125V8H12.5V7H6.125C5.84321 7 5.57296 7.10536 5.3737 7.29289C5.17444 7.48043 5.0625 7.73478 5.0625 8V18C5.0625 18.2652 5.17444 18.5196 5.3737 18.7071C5.57296 18.8946 5.84321 19 6.125 19H18.875C19.1568 19 19.427 18.8946 19.6263 18.7071C19.8256 18.5196 19.9375 18.2652 19.9375 18V13.5H18.875Z" fill="#A9A9A9"/>
<path d="M14.625 13.5H17.8125V14.5H14.625V13.5ZM15.6875 15.5H17.8125V16.5H15.6875V15.5ZM21 9V8H19.8838C19.8153 7.68701 19.6833 7.3894 19.495 7.1235L20.2865 6.3785L19.5353 5.6715L18.7438 6.4165C18.4613 6.23926 18.1451 6.11498 17.8125 6.0505V5H16.75V6.0505C16.4174 6.11498 16.1012 6.23926 15.8187 6.4165L15.0272 5.6715L14.276 6.3785L15.0675 7.1235C14.8792 7.3894 14.7472 7.68701 14.6787 8H13.5625V9H14.6787C14.7472 9.31299 14.8792 9.6106 15.0675 9.8765L14.276 10.6215L15.0272 11.3285L15.8187 10.5835C16.1012 10.7607 16.4174 10.885 16.75 10.9495V12H17.8125V10.9495C18.1451 10.885 18.4613 10.7607 18.7438 10.5835L19.5353 11.3285L20.2865 10.6215L19.495 9.8765C19.6833 9.6106 19.8153 9.31299 19.8838 9H21ZM17.2812 10C16.966 10 16.6579 9.91203 16.3958 9.7472C16.1337 9.58238 15.9294 9.34811 15.8088 9.07403C15.6882 8.79994 15.6566 8.49834 15.7181 8.20736C15.7796 7.91639 15.9314 7.64912 16.1543 7.43934C16.3772 7.22956 16.6612 7.0867 16.9703 7.02882C17.2795 6.97094 17.5999 7.00065 17.8912 7.11418C18.1824 7.22771 18.4313 7.41997 18.6064 7.66664C18.7815 7.91332 18.875 8.20333 18.875 8.5C18.8746 8.8977 18.7065 9.279 18.4077 9.56022C18.1089 9.84144 17.7038 9.9996 17.2812 10Z" fill="#A9A9A9"/>
</svg>
