<svg width="25" height="25" viewBox="0 0 25 25" fill="none" xmlns="http://www.w3.org/2000/svg">
<circle cx="12.5" cy="12.5" r="12.5" fill="#717171"/>
<path d="M14.5247 16.0998C15.8444 15.9435 17.1411 15.632 18.3879 15.1718C17.332 14.0022 16.7486 12.4819 16.7509 10.9062V10.375C16.7509 9.24783 16.3032 8.16683 15.5062 7.3698C14.7091 6.57277 13.6281 6.125 12.5009 6.125C11.3738 6.125 10.2928 6.57277 9.49574 7.3698C8.69871 8.16683 8.25095 9.24783 8.25095 10.375V10.9062C8.25308 12.482 7.6694 14.0023 6.61328 15.1718C7.84082 15.6252 9.13495 15.9404 10.4772 16.0998M14.5247 16.0998C13.1802 16.2592 11.8217 16.2592 10.4772 16.0998M14.5247 16.0998C14.6267 16.4184 14.6521 16.7567 14.5987 17.087C14.5454 17.4173 14.4147 17.7303 14.2175 18.0006C14.0203 18.2709 13.762 18.4908 13.4637 18.6424C13.1654 18.794 12.8355 18.873 12.5009 18.873C12.1663 18.873 11.8365 18.794 11.5382 18.6424C11.2399 18.4908 10.9816 18.2709 10.7844 18.0006C10.5872 17.7303 10.4565 17.4173 10.4032 17.087C10.3498 16.7567 10.3752 16.4184 10.4772 16.0998" stroke="#A9A9A9" stroke-width="1.5" stroke-linecap="round" stroke-linejoin="round"/>
</svg>
