<svg width="33" height="31" viewBox="0 0 33 31" fill="none" xmlns="http://www.w3.org/2000/svg">
<path d="M16.3762 0.154833C19.1625 0.125364 21.9114 0.797596 24.3695 2.10959C26.8277 3.42159 28.9162 5.33115 30.4425 7.66233V2.19671H33V9.31233C32.9946 9.93973 32.743 10.5399 32.2993 10.9835C31.8557 11.4272 31.2555 11.6788 30.6281 11.6842H23.5331V9.10608H28.3181C27.0309 7.11728 25.2602 5.48753 23.1717 4.36932C21.0831 3.25112 18.7451 2.681 16.3762 2.71233C12.8517 2.5894 9.42145 3.86451 6.833 6.2598C4.24455 8.65508 2.70774 11.9764 2.5575 15.4998C2.70774 19.0233 4.24455 22.3446 6.833 24.7399C9.42145 27.1352 12.8517 28.4103 16.3762 28.2873C19.9008 28.4103 23.3311 27.1352 25.9195 24.7399C28.508 22.3446 30.0448 19.0233 30.195 15.4998H32.7525C32.6072 19.7034 30.8024 23.6781 27.7332 26.5541C24.6639 29.43 20.5804 30.9728 16.3762 30.8448C12.1721 30.9728 8.08855 29.43 5.01935 26.5541C1.95015 23.6781 0.145346 19.7034 0 15.4998C0.145346 11.2963 1.95015 7.32153 5.01935 4.4456C8.08855 1.56967 12.1721 0.026848 16.3762 0.154833Z" fill="#6C6C6C"/>
</svg>
