<svg width="9" height="9" viewBox="0 0 9 9" fill="none" xmlns="http://www.w3.org/2000/svg">
<path d="M5.85479 3.46518C6.26695 3.46518 6.60146 3.79969 6.60146 4.21185V6.23809C6.60146 6.74742 6.39913 7.23589 6.03898 7.59604C5.67883 7.95619 5.19036 8.15852 4.68103 8.15852C4.1717 8.15852 3.68324 7.95619 3.32309 7.59604C2.96294 7.23589 2.76061 6.74742 2.76061 6.23809V4.21185C2.76061 3.79969 3.09469 3.46518 3.50727 3.46518H5.85479ZM5.85479 4.10518H3.50727C3.47898 4.10518 3.45185 4.11642 3.43185 4.13642C3.41184 4.15643 3.40061 4.18356 3.40061 4.21185V6.23809C3.40061 6.57768 3.53551 6.90336 3.77563 7.14349C4.01576 7.38361 4.34144 7.51852 4.68103 7.51852C5.02062 7.51852 5.3463 7.38361 5.58643 7.14349C5.82656 6.90336 5.96146 6.57768 5.96146 6.23809V4.21185C5.96146 4.18356 5.95022 4.15643 5.93022 4.13642C5.91021 4.11642 5.88308 4.10518 5.85479 4.10518ZM1.15975 3.46518H2.60231C2.45178 3.64698 2.35985 3.87011 2.33863 4.10518H1.15975C1.13146 4.10518 1.10433 4.11642 1.08433 4.13642C1.06432 4.15643 1.05309 4.18356 1.05309 4.21185V5.59809C1.05306 5.75932 1.08957 5.91846 1.15987 6.06356C1.23017 6.20865 1.33244 6.33593 1.45899 6.43583C1.58554 6.53573 1.73308 6.60566 1.89053 6.64036C2.04798 6.67506 2.21125 6.67362 2.36807 6.63617C2.40434 6.85121 2.47047 7.05644 2.56135 7.24716C2.30846 7.31481 2.04339 7.3234 1.78665 7.27225C1.52991 7.2211 1.28837 7.11159 1.08071 6.95219C0.873052 6.79278 0.704836 6.58775 0.58907 6.35295C0.473305 6.11815 0.413091 5.85988 0.413086 5.59809V4.21185C0.413086 3.79969 0.747593 3.46518 1.15975 3.46518ZM6.75975 3.46518H8.19975C8.61191 3.46518 8.94642 3.79969 8.94642 4.21185V5.59852C8.94648 5.86013 8.88639 6.11826 8.7708 6.35296C8.65521 6.58765 8.48721 6.79263 8.27978 6.95206C8.07235 7.11149 7.83105 7.22109 7.57451 7.27241C7.31798 7.32372 7.05308 7.31537 6.80029 7.24801C6.89159 7.05686 6.95773 6.85164 6.99442 6.6366C7.15104 6.67361 7.31401 6.67471 7.47112 6.6398C7.62822 6.60489 7.77539 6.53488 7.90161 6.43502C8.02782 6.33516 8.12979 6.20804 8.1999 6.06317C8.27 5.91831 8.30642 5.75945 8.30642 5.59852V4.21185C8.30642 4.18356 8.29518 4.15643 8.27518 4.13642C8.25517 4.11642 8.22804 4.10518 8.19975 4.10518H7.02343C7.00221 3.87011 6.91028 3.64698 6.75975 3.46518ZM4.67975 0.478516C5.01923 0.478516 5.3448 0.613372 5.58485 0.853419C5.8249 1.09347 5.95975 1.41904 5.95975 1.75852C5.95975 2.09799 5.8249 2.42357 5.58485 2.66361C5.3448 2.90366 5.01923 3.03852 4.67975 3.03852C4.34028 3.03852 4.0147 2.90366 3.77466 2.66361C3.53461 2.42357 3.39975 2.09799 3.39975 1.75852C3.39975 1.41904 3.53461 1.09347 3.77466 0.853419C4.0147 0.613372 4.34028 0.478516 4.67975 0.478516ZM7.45309 0.905182C7.73598 0.905182 8.00729 1.01756 8.20733 1.2176C8.40737 1.41764 8.51975 1.68895 8.51975 1.97185C8.51975 2.25475 8.40737 2.52606 8.20733 2.7261C8.00729 2.92613 7.73598 3.03852 7.45309 3.03852C7.17019 3.03852 6.89888 2.92613 6.69884 2.7261C6.4988 2.52606 6.38642 2.25475 6.38642 1.97185C6.38642 1.68895 6.4988 1.41764 6.69884 1.2176C6.89888 1.01756 7.17019 0.905182 7.45309 0.905182ZM1.90642 0.905182C2.18932 0.905182 2.46063 1.01756 2.66067 1.2176C2.86071 1.41764 2.97309 1.68895 2.97309 1.97185C2.97309 2.25475 2.86071 2.52606 2.66067 2.7261C2.46063 2.92613 2.18932 3.03852 1.90642 3.03852C1.62352 3.03852 1.35221 2.92613 1.15217 2.7261C0.952133 2.52606 0.839753 2.25475 0.839753 1.97185C0.839753 1.68895 0.952133 1.41764 1.15217 1.2176C1.35221 1.01756 1.62352 0.905182 1.90642 0.905182ZM4.67975 1.11852C4.51001 1.11852 4.34723 1.18594 4.2272 1.30597C4.10718 1.42599 4.03975 1.58878 4.03975 1.75852C4.03975 1.92825 4.10718 2.09104 4.2272 2.21106C4.34723 2.33109 4.51001 2.39852 4.67975 2.39852C4.84949 2.39852 5.01228 2.33109 5.1323 2.21106C5.25232 2.09104 5.31975 1.92825 5.31975 1.75852C5.31975 1.58878 5.25232 1.42599 5.1323 1.30597C5.01228 1.18594 4.84949 1.11852 4.67975 1.11852ZM7.45309 1.54518C7.33993 1.54518 7.2314 1.59013 7.15139 1.67015C7.07137 1.75017 7.02642 1.85869 7.02642 1.97185C7.02642 2.08501 7.07137 2.19353 7.15139 2.27355C7.2314 2.35356 7.33993 2.39852 7.45309 2.39852C7.56624 2.39852 7.67477 2.35356 7.75478 2.27355C7.8348 2.19353 7.87975 2.08501 7.87975 1.97185C7.87975 1.85869 7.8348 1.75017 7.75478 1.67015C7.67477 1.59013 7.56624 1.54518 7.45309 1.54518ZM1.90642 1.54518C1.79326 1.54518 1.68474 1.59013 1.60472 1.67015C1.5247 1.75017 1.47975 1.85869 1.47975 1.97185C1.47975 2.08501 1.5247 2.19353 1.60472 2.27355C1.68474 2.35356 1.79326 2.39852 1.90642 2.39852C2.01958 2.39852 2.1281 2.35356 2.20812 2.27355C2.28813 2.19353 2.33309 2.08501 2.33309 1.97185C2.33309 1.85869 2.28813 1.75017 2.20812 1.67015C2.1281 1.59013 2.01958 1.54518 1.90642 1.54518Z" fill="#D4D4D4"/>
</svg>
