<svg width="23" height="23" viewBox="0 0 23 23" fill="none" xmlns="http://www.w3.org/2000/svg">
<path d="M7.79875 6.674L10.375 4.0865V14.8752C10.375 15.1736 10.4935 15.4598 10.7045 15.6707C10.9155 15.8817 11.2016 16.0002 11.5 16.0002C11.7984 16.0002 12.0845 15.8817 12.2955 15.6707C12.5065 15.4598 12.625 15.1736 12.625 14.8752V4.0865L15.2012 6.674C15.3058 6.77944 15.4303 6.86314 15.5673 6.92025C15.7044 6.97737 15.8515 7.00677 16 7.00677C16.1485 7.00677 16.2956 6.97737 16.4326 6.92025C16.5697 6.86314 16.6942 6.77944 16.7987 6.674C16.9042 6.56942 16.9879 6.44499 17.045 6.3079C17.1021 6.17081 17.1315 6.02376 17.1315 5.87525C17.1315 5.72674 17.1021 5.57969 17.045 5.4426C16.9879 5.30551 16.9042 5.18108 16.7987 5.0765L12.2987 0.5765C12.1918 0.474079 12.0656 0.393793 11.9275 0.34025C11.6536 0.227729 11.3464 0.227729 11.0725 0.34025C10.9344 0.393793 10.8082 0.474079 10.7012 0.5765L6.20125 5.0765C6.09636 5.18139 6.01315 5.30592 5.95638 5.44297C5.89961 5.58002 5.8704 5.72691 5.8704 5.87525C5.8704 6.02359 5.89961 6.17048 5.95638 6.30753C6.01315 6.44458 6.09636 6.56911 6.20125 6.674C6.30614 6.77889 6.43067 6.8621 6.56772 6.91887C6.70477 6.97563 6.85166 7.00485 7 7.00485C7.14834 7.00485 7.29523 6.97563 7.43228 6.91887C7.56933 6.8621 7.69386 6.77889 7.79875 6.674ZM21.625 11.5002C21.3266 11.5002 21.0405 11.6188 20.8295 11.8298C20.6185 12.0407 20.5 12.3269 20.5 12.6252V19.3752C20.5 19.6736 20.3815 19.9598 20.1705 20.1707C19.9595 20.3817 19.6734 20.5002 19.375 20.5002H3.625C3.32663 20.5002 3.04048 20.3817 2.8295 20.1707C2.61853 19.9598 2.5 19.6736 2.5 19.3752V12.6252C2.5 12.3269 2.38147 12.0407 2.1705 11.8298C1.95952 11.6188 1.67337 11.5002 1.375 11.5002C1.07663 11.5002 0.790483 11.6188 0.579505 11.8298C0.368526 12.0407 0.25 12.3269 0.25 12.6252V19.3752C0.25 20.2704 0.605579 21.1288 1.23851 21.7617C1.87145 22.3947 2.72989 22.7502 3.625 22.7502H19.375C20.2701 22.7502 21.1285 22.3947 21.7615 21.7617C22.3944 21.1288 22.75 20.2704 22.75 19.3752V12.6252C22.75 12.3269 22.6315 12.0407 22.4205 11.8298C22.2095 11.6188 21.9234 11.5002 21.625 11.5002Z" fill="white"/>
</svg>
