<svg width="44" height="49" viewBox="0 0 44 49" fill="none" xmlns="http://www.w3.org/2000/svg">
<path d="M9.17807 8.80957V8.80957C7.70279 8.80957 6.50684 10.0055 6.50684 11.4808V40.8335C6.50684 43.0426 8.2977 44.8335 10.5068 44.8335H27.2021C28.1648 44.8335 28.9452 44.0531 28.9452 43.0904V43.0904" stroke="white" stroke-width="1.5"/>
<path d="M22.0001 26.4215V34.4268M18.3494 30.4242H25.6507M12.8733 42.4321C11.9051 42.4321 10.9766 42.0104 10.2919 41.2598C9.60728 40.5091 9.22266 39.491 9.22266 38.4295V6.4082H25.6507L34.7775 16.4149V38.4295C34.7775 39.491 34.3928 40.5091 33.7082 41.2598C33.0236 42.0104 32.095 42.4321 31.1268 42.4321H12.8733Z" stroke="white" stroke-width="1.5" stroke-linecap="round" stroke-linejoin="round"/>
<path d="M23.8252 6.4082V18.4162H34.7773" stroke="white" stroke-width="1.5" stroke-linejoin="round"/>
</svg>
