<?xml version="1.0" encoding="UTF-8" standalone="no"?>
<svg
   width="24"
   height="24"
   viewBox="0 0 24 24"
   version="1.1"
   id="svg1"
   sodipodi:docname="user-icon-light.svg"
   inkscape:version="1.3 (0e150ed6c4, 2023-07-21)"
   xmlns:inkscape="http://www.inkscape.org/namespaces/inkscape"
   xmlns:sodipodi="http://sodipodi.sourceforge.net/DTD/sodipodi-0.dtd"
   xmlns="http://www.w3.org/2000/svg"
   xmlns:svg="http://www.w3.org/2000/svg">
  <defs
     id="defs1" />
  <sodipodi:namedview
     id="namedview1"
     pagecolor="#ffffff"
     bordercolor="#000000"
     borderopacity="0.25"
     inkscape:showpageshadow="2"
     inkscape:pageopacity="0.0"
     inkscape:pagecheckerboard="0"
     inkscape:deskcolor="#d1d1d1"
     inkscape:zoom="11.947158"
     inkscape:cx="-11.006802"
     inkscape:cy="7.5750233"
     inkscape:window-width="1920"
     inkscape:window-height="1015"
     inkscape:window-x="0"
     inkscape:window-y="0"
     inkscape:window-maximized="1"
     inkscape:current-layer="svg1" />
  <path
     d="M12 0c-6.627 0-12 5.373-12 12s5.373 12 12 12 12-5.373 12-12-5.373-12-12-12zm7.753 18.305c-.261-.586-.789-.991-1.871-1.241-2.293-.529-4.428-.993-3.393-2.945 3.145-5.942.833-9.119-2.489-9.119-3.388 0-5.644 3.299-2.489 9.119 1.066 1.964-1.148 2.427-3.393 2.945-1.084.25-1.608.658-1.867 1.246-1.405-1.723-2.251-3.919-2.251-6.31 0-5.514 4.486-10 10-10s10 4.486 10 10c0 2.389-.845 4.583-2.247 6.305z"
     id="path1"
     style="fill:#fbfbfb;fill-opacity:1" />
</svg>
