<svg width="24" height="24" viewBox="0 0 24 24" fill="none" xmlns="http://www.w3.org/2000/svg">
<path d="M7.85 17.075C8.06667 17.075 8.24583 17.0042 8.3875 16.8625C8.52917 16.7208 8.6 16.5417 8.6 16.325V10.95C8.6 10.7333 8.52917 10.5542 8.3875 10.4125C8.24583 10.2708 8.06667 10.2 7.85 10.2C7.63333 10.2 7.45417 10.2708 7.3125 10.4125C7.17083 10.5542 7.1 10.7333 7.1 10.95V16.325C7.1 16.5417 7.17083 16.7208 7.3125 16.8625C7.45417 17.0042 7.63333 17.075 7.85 17.075ZM12 17.075C12.2167 17.075 12.3958 17.0042 12.5375 16.8625C12.6792 16.7208 12.75 16.5417 12.75 16.325V7.675C12.75 7.45833 12.6792 7.27917 12.5375 7.1375C12.3958 6.99583 12.2167 6.925 12 6.925C11.7833 6.925 11.6042 6.99583 11.4625 7.1375C11.3208 7.27917 11.25 7.45833 11.25 7.675V16.325C11.25 16.5417 11.3208 16.7208 11.4625 16.8625C11.6042 17.0042 11.7833 17.075 12 17.075ZM16.15 17.075C16.3667 17.075 16.5458 17.0042 16.6875 16.8625C16.8292 16.7208 16.9 16.5417 16.9 16.325V14.125C16.9 13.9083 16.8292 13.7292 16.6875 13.5875C16.5458 13.4458 16.3667 13.375 16.15 13.375C15.9333 13.375 15.7542 13.4458 15.6125 13.5875C15.4708 13.7292 15.4 13.9083 15.4 14.125V16.325C15.4 16.5417 15.4708 16.7208 15.6125 16.8625C15.7542 17.0042 15.9333 17.075 16.15 17.075ZM4.5 21C4.1 21 3.75 20.85 3.45 20.55C3.15 20.25 3 19.9 3 19.5V4.5C3 4.1 3.15 3.75 3.45 3.45C3.75 3.15 4.1 3 4.5 3H19.5C19.9 3 20.25 3.15 20.55 3.45C20.85 3.75 21 4.1 21 4.5V19.5C21 19.9 20.85 20.25 20.55 20.55C20.25 20.85 19.9 21 19.5 21H4.5Z" fill="#006CCB"/>
</svg>
