<svg width="277" height="280" viewBox="0 0 277 280" fill="none" xmlns="http://www.w3.org/2000/svg">
<path fill-rule="evenodd" clip-rule="evenodd" d="M82.2984 213.361C41.0366 188.833 49.911 131.55 74.2313 89.935C94.5042 55.2458 137.621 39.3989 172.016 59.8452C214.951 85.3683 247.79 134.762 222.483 178.064C193.832 227.09 130.909 242.258 82.2984 213.361Z" fill="#01EBB9"/>
<path fill-rule="evenodd" clip-rule="evenodd" d="M221.111 78.1524C259.854 114.495 235.324 175.768 197.97 216.273C166.833 250.038 115.609 257.869 83.3138 227.575C42.9993 189.758 19.8992 127.844 58.7681 85.6958C102.774 37.977 175.468 35.3374 221.111 78.1524Z" fill="#01EBB9" fill-opacity="0.56"/>
<path fill-rule="evenodd" clip-rule="evenodd" d="M157.109 62.9432C199.404 63.1494 217.897 110.037 217.696 151.982C217.528 186.946 191.624 217.848 156.367 217.676C112.357 217.462 65.521 194.887 65.7301 151.242C65.9669 101.827 107.281 62.7004 157.109 62.9432Z" fill="#93EAD7"/>
<ellipse cx="229.475" cy="89.352" rx="12.5184" ry="12.6254" fill="#2EA78D" fill-opacity="0.72"/>
<ellipse cx="76.6346" cy="225.882" rx="12.5184" ry="12.6254" fill="#2EA78D" fill-opacity="0.69"/>
<ellipse cx="239.082" cy="103.592" rx="5.24026" ry="5.13826" fill="#2EA78D" fill-opacity="0.69"/>
<ellipse cx="86.2412" cy="240.123" rx="5.24026" ry="5.13826" fill="#2EA78D" fill-opacity="0.69"/>
<ellipse cx="219.286" cy="71.5875" rx="5.24026" ry="5.13826" fill="#2EA78D" fill-opacity="0.69"/>
<ellipse cx="66.4463" cy="208.119" rx="5.24026" ry="5.13826" fill="#2EA78D" fill-opacity="0.69"/>
</svg>
