<svg width="240" height="243" viewBox="0 0 240 243" fill="none" xmlns="http://www.w3.org/2000/svg">
<path fill-rule="evenodd" clip-rule="evenodd" d="M198.821 96.0145C211.465 144.665 180.557 193.367 131.763 205.974C87.3989 217.437 47.7189 182.261 36.2223 138.027C26.179 99.384 53.019 62.1294 91.7754 52.1155C135.532 40.8097 187.482 52.3862 198.821 96.0145Z" fill="#F51C1A"/>
<path fill-rule="evenodd" clip-rule="evenodd" d="M148.54 29.8003C199.8 52.8725 220.444 114.161 197.071 165.785C175.82 212.724 117.259 222.811 70.6517 201.833C29.9362 183.507 16.3946 133.823 34.9597 92.818C55.92 46.5227 102.571 9.10978 148.54 29.8003Z" fill="#F51C1A" fill-opacity="0.56"/>
<path fill-rule="evenodd" clip-rule="evenodd" d="M127.963 55.2832C171.657 65.8814 197.398 109.135 187.209 150.897C177.945 188.868 133.736 204.087 94.0082 194.45C59.3022 186.032 40.9317 150.551 49.0249 117.379C58.1623 79.9285 88.7789 45.7791 127.963 55.2832Z" fill="#FEC2C2"/>
<ellipse cx="171.872" cy="43.6263" rx="11.7124" ry="11.678" fill="#B12D2C" fill-opacity="0.71"/>
<ellipse cx="30.5063" cy="147.642" rx="11.7124" ry="11.678" fill="#B12D2C" fill-opacity="0.71"/>
<ellipse cx="183.584" cy="56.5261" rx="4.90285" ry="4.75269" fill="#B12D2C" fill-opacity="0.71"/>
<ellipse cx="35.4097" cy="166.245" rx="4.90285" ry="4.75269" fill="#B12D2C" fill-opacity="0.71"/>
<ellipse cx="158.797" cy="31.8123" rx="4.90285" ry="4.75269" fill="#B12D2C" fill-opacity="0.71"/>
<ellipse cx="25.604" cy="129.582" rx="4.90285" ry="4.75269" fill="#B12D2C" fill-opacity="0.71"/>
</svg>
