<svg width="72" height="46" viewBox="0 0 72 46" fill="none" xmlns="http://www.w3.org/2000/svg">
<rect x="68" width="4" height="46" fill="#006CCB"/>
<rect width="46" height="46" rx="10" fill="#006CCB"/>
<path d="M14.5 31C14.1 31 13.75 30.85 13.45 30.55C13.15 30.25 13 29.9 13 29.5V16.5C13 16.1 13.15 15.75 13.45 15.45C13.75 15.15 14.1 15 14.5 15H27.5C27.9 15 28.25 15.15 28.55 15.45C28.85 15.75 29 16.1 29 16.5V21.875L33 17.875V28.125L29 24.125V29.5C29 29.9 28.85 30.25 28.55 30.55C28.25 30.85 27.9 31 27.5 31H14.5Z" fill="white"/>
</svg>
