<svg width="21" height="21" viewBox="0 0 21 21" fill="none" xmlns="http://www.w3.org/2000/svg">
<g clip-path="url(#clip0_267_115)">
<path d="M20.5354 10.6045C20.5354 9.89983 20.4783 9.19132 20.3564 8.49805H10.5781V12.4901H16.1777C15.9453 13.7776 15.1987 14.9166 14.1055 15.6403V18.2306H17.4461C19.4079 16.425 20.5354 13.7586 20.5354 10.6045Z" fill="#4285F4"/>
<path d="M10.5765 20.7318C13.3724 20.7318 15.7303 19.8138 17.4483 18.2292L14.1076 15.6389C13.1782 16.2712 11.9783 16.6293 10.5803 16.6293C7.87576 16.6293 5.58262 14.8047 4.75983 12.3516H1.3125V15.0218C3.07235 18.5225 6.65682 20.7318 10.5765 20.7318Z" fill="#34A853"/>
<path d="M4.74941 12.3543C4.31516 11.0668 4.31516 9.67261 4.74941 8.3851V5.71484H1.30589C-0.164463 8.64412 -0.164463 12.0953 1.30589 15.0245L4.74941 12.3543Z" fill="#FBBC04"/>
<path d="M10.5765 4.10321C12.0545 4.08036 13.4829 4.6365 14.5533 5.65737L17.513 2.69762C15.6389 0.937764 13.1515 -0.0297751 10.5765 0.000698604C6.65681 0.000698604 3.07235 2.21004 1.3125 5.71451L4.75602 8.38476C5.575 5.92782 7.87195 4.10321 10.5765 4.10321Z" fill="#EA4335"/>
</g>
<defs>
<clipPath id="clip0_267_115">
<rect width="20.7335" height="20.7335" fill="white"/>
</clipPath>
</defs>
</svg>
