<svg width="21" height="21" viewBox="0 0 21 21" fill="none" xmlns="http://www.w3.org/2000/svg">
<path d="M20.7335 10.3668C20.7335 4.64139 16.0921 0 10.3668 0C4.64139 0 0 4.64131 0 10.3668C0 15.5411 3.79099 19.8299 8.74695 20.6076V13.3634H6.11477V10.3668H8.74695V8.08283C8.74695 5.48466 10.2947 4.04951 12.6626 4.04951C13.7969 4.04951 14.9832 4.25199 14.9832 4.25199V6.80318H13.676C12.3881 6.80318 11.9866 7.60231 11.9866 8.42218V10.3668H14.8617L14.4021 13.3634H11.9866V20.6076C16.9425 19.8299 20.7335 15.5411 20.7335 10.3668Z" fill="#1877F2"/>
<path d="M14.4026 13.3637L14.8622 10.367H11.987V8.42247C11.987 7.60252 12.3887 6.80347 13.6765 6.80347H14.9837V4.25228C14.9837 4.25228 13.7973 4.0498 12.6631 4.0498C10.2951 4.0498 8.74742 5.48495 8.74742 8.08312V10.367H6.11523V13.3637H8.74742V20.6079C9.28326 20.6918 9.82484 20.7339 10.3672 20.7338C10.9096 20.734 11.4512 20.6919 11.987 20.6079V13.3637H14.4026Z" fill="white"/>
</svg>
