<svg width="21" height="18" viewBox="0 0 21 18" fill="none" xmlns="http://www.w3.org/2000/svg">
<path d="M20.7335 2.0161C19.9571 2.36375 19.1336 2.59195 18.2904 2.6931C19.1687 2.161 19.8431 1.31839 20.1607 0.314433C19.3257 0.815253 18.4122 1.16811 17.4596 1.35777C16.6836 0.522199 15.5782 0 14.3546 0C12.0054 0 10.1008 1.92507 10.1008 4.2994C10.1008 4.63643 10.1384 4.96453 10.2109 5.27929C6.6757 5.09993 3.54138 3.38827 1.44333 0.787023C1.07725 1.42203 0.867487 2.16067 0.867487 2.94851C0.867487 4.4402 1.61851 5.75614 2.75982 6.5272C2.08432 6.50581 1.42369 6.3214 0.833066 5.98936C0.832823 6.00737 0.832823 6.02538 0.832823 6.04347C0.832823 8.12662 2.29907 9.86439 4.24494 10.2594C3.61855 10.4316 2.96151 10.4568 2.32402 10.3331C2.86527 12.0412 4.43624 13.2842 6.29756 13.319C4.84176 14.4721 3.00757 15.1595 1.01473 15.1595C0.671328 15.1595 0.332789 15.1391 0 15.0994C1.88246 16.3193 4.11836 17.0311 6.52053 17.0311C14.3448 17.0311 18.6232 10.4796 18.6232 4.79802C18.6232 4.61154 18.6192 4.42612 18.6109 4.24177C19.4437 3.63328 20.1625 2.8796 20.7335 2.0161Z" fill="#55ACEE"/>
</svg>
