<svg width="23" height="21" viewBox="0 0 23 21" fill="none" xmlns="http://www.w3.org/2000/svg">
<path d="M21.6075 0L12.1152 7.02363L13.8804 2.88441L21.6075 0Z" fill="#E17726"/>
<path d="M0.533653 0.00683594L8.24012 2.88346L9.9162 7.07695L0.533653 0.00683594ZM17.7878 14.9359L21.9833 15.0157L20.517 19.9968L15.3976 18.5873L17.7878 14.9359ZM4.33137 14.9359L6.71267 18.5873L1.6019 19.9969L0.144531 15.0157L4.33137 14.9359Z" fill="#E27625"/>
<path d="M9.6934 6.00905L9.86485 11.5467L4.73438 11.3133L6.19373 9.11165L6.21222 9.09048L9.6934 6.00905ZM12.3829 5.94727L15.9172 9.09065L15.9355 9.11174L17.3949 11.3134L12.2655 11.5467L12.3829 5.94727ZM6.86802 14.9522L9.66938 17.1349L6.41521 18.706L6.86802 14.9522ZM15.2619 14.9518L15.7053 18.7061L12.4602 17.1347L15.2619 14.9518Z" fill="#E27625"/>
<path d="M12.5253 16.9307L15.8183 18.5252L12.7551 19.9809L12.7869 19.0188L12.5253 16.9307ZM9.59007 16.9314L9.33869 19.003L9.35934 19.9798L6.28906 18.5252L9.59007 16.9314Z" fill="#D5BFB2"/>
<path d="M8.6434 12.2705L9.50391 14.079L6.57422 13.2207L8.6434 12.2705ZM13.4813 12.2707L15.5602 13.2207L12.6209 14.0787L13.4813 12.2707Z" fill="#233447"/>
<path d="M7.0899 14.9342L6.61636 18.8263L4.07812 15.0194L7.0899 14.9342ZM15.0357 14.9343L18.0475 15.0194L15.4998 18.8265L15.0357 14.9343ZM17.467 11.0938L15.2751 13.3276L13.5851 12.5554L12.776 14.2563L12.2456 11.3313L17.467 11.0938ZM4.65727 11.0938L9.87969 11.3313L9.34919 14.2563L8.53993 12.5556L6.85892 13.3277L4.65727 11.0938Z" fill="#CC6228"/>
<path d="M4.50781 10.6354L6.98772 13.1518L7.07361 15.6361L4.50781 10.6354ZM17.6165 10.6309L15.0461 15.6405L15.1428 13.1518L17.6165 10.6309ZM9.75667 10.7887L9.85648 11.4169L10.1031 12.9819L9.94454 17.7887L9.1949 13.9273L9.19464 13.8874L9.75667 10.7887ZM12.3639 10.7799L12.9274 13.8874L12.9271 13.9273L12.1756 17.7984L12.1458 16.8301L12.0286 12.9534L12.3639 10.7799Z" fill="#E27525"/>
<path d="M15.3613 13.0518L15.2774 15.2102L12.6613 17.2484L12.1324 16.8748L12.7252 13.8214L15.3613 13.0518ZM6.76562 13.0518L9.39252 13.8214L9.98532 16.8748L9.45646 17.2484L6.84029 15.21L6.76562 13.0518Z" fill="#F5841F"/>
<path d="M5.78906 18.0488L9.13604 19.6347L9.12187 18.9575L9.40194 18.7116H12.7145L13.0047 18.9566L12.9833 19.6333L16.3091 18.0528L14.6907 19.3901L12.7339 20.7341H9.37506L7.41952 19.3846L5.78906 18.0488Z" fill="#C0AC9D"/>
<path d="M12.2864 16.7178L12.7596 17.0521L13.0369 19.2646L12.6356 18.9258H9.48354L9.08984 19.2715L9.35807 17.0523L9.83145 16.7178H12.2864Z" fill="#161616"/>
<path d="M20.9825 0.194336L22.1219 3.61261L21.4103 7.0689L21.917 7.45975L21.2313 7.9829L21.7467 8.38092L21.0643 9.00232L21.4832 9.30572L20.3714 10.6042L15.8114 9.27642L15.7719 9.25525L12.4858 6.48327L20.9825 0.194336ZM1.13945 0.194336L9.63617 6.48327L6.35003 9.25525L6.31054 9.27642L1.75048 10.6042L0.638684 9.30572L1.05727 9.00258L0.375295 8.38092L0.88963 7.98333L0.193653 7.45871L0.719481 7.0676L0 3.61278L1.13945 0.194336Z" fill="#763E1A"/>
<path d="M15.5861 8.98616L20.4177 10.3929L21.9874 15.2309H17.8462L14.9928 15.2668L17.0679 11.2219L15.5861 8.98616ZM6.5313 8.98616L5.04922 11.2219L7.12462 15.2668L4.27253 15.2309H0.138672L1.69956 10.393L6.5313 8.98616ZM14.1164 2.86133L12.7649 6.51136L12.4781 11.4421L12.3684 12.9876L12.3597 16.9357H9.75765L9.74918 12.9951L9.63909 11.4408L9.3522 6.51136L8.00094 2.86133H14.1164Z" fill="#F5841F"/>
</svg>
